<?xml version="1.0" encoding="UTF-8"?>
<svg id="Layer_1" data-name="Layer 1" xmlns="http://www.w3.org/2000/svg" version="1.1" xmlns:xlink="http://www.w3.org/1999/xlink" viewBox="0 0 468 122">
  <defs>
    <style>
      .cls-1 {
        fill: url(#linear-gradient);
      }

      .cls-1, .cls-2, .cls-3 {
        stroke-width: 0px;
      }

      .cls-2 {
        fill: #898989;
      }

      .cls-3 {
        fill: #fff;
      }
    </style>
    <linearGradient id="linear-gradient" x1="119.47" y1="98.7" x2="33.78" y2="13.01" gradientUnits="userSpaceOnUse">
      <stop offset="0" stop-color="#29378d"/>
      <stop offset="1" stop-color="#ed1d8f"/>
    </linearGradient>
  </defs>
  <path class="cls-1" d="M128.38,43.16c-3.96-6.28-9.07-10.85-17.15-10.22-3.5.27-6.28,1.96-8.34,4.8,2.34.11,4.56.05,6.73.35,8.63,1.21,14.69,9.13,14.87,17.25.14,6.28-2.47,11.68-6.82,16.18-3.47,3.6-7.65,6.2-12.14,8.37-3.14,1.53-6.15,3.31-7.67,6.71-.83,1.86-1.62,3.74-2.3,5.65-1.15,3.26-2.1,6.6-3.34,9.83-.31.82-1.4,1.86-2.12,1.85-.74-.01-1.78-1.06-2.12-1.88-1.27-3.08-2.26-6.28-3.42-9.41-1.8-4.85-5-8.15-10.17-9.51-5.57-1.46-10.94-3.45-15.65-6.94-3.25-2.4-4.22-6.34-2.14-9.36.77-1.12,1.89-1.19,3.02-.35,2.15,1.62,4.28,3.31,6.56,4.73,8.91,5.55,18.59,6.63,28.67,4.4,6.42-1.42,12.24-4.35,17.13-8.76,3.74-3.36,5.84-7.56,4.51-12.86-1.26-5.03-6.76-9.34-11.73-8.98-3.46.25-6.44,1.76-9.02,4.03-5.24,4.6-14.43,5.23-19.66.22-2.87-2.75-5.97-5.25-9.97-6.58-9.02-3-16.9-1.23-23.96,4.9-1.19,1.03-2.45,1.73-4.11,1.33-1.76-.42-2.67-1.75-2.94-3.3-.31-1.78.7-3.34,2.08-4.35,2.35-1.73,4.75-3.45,7.34-4.77,5.91-3.01,12.27-3.83,18.79-2.8,6.92,1.09,12.75,4.47,17.65,9.4,2.66,2.68,6.76,2.46,9.35.35,1.06-.86,2.06-1.84,2.9-2.91,2.08-2.63,3.08-5.78,3.01-9.02-.07-3.56-1.7-6.7-4.18-9.31-3.46-3.65-7.74-6.06-12.35-7.92-6.52-2.64-13.32-4.08-20.34-3.93-3.96.08-7.93.67-11.85,1.27-7.26,1.11-13.98,3.79-20.09,7.81-4.31,2.84-7.8,6.54-10.7,10.9-2.77,4.18-4.3,8.74-4.76,13.57-.54,5.74.63,11.23,3.95,16.13,3.98,5.89,9.26,9.39,16.58,8.77,3.47-.29,6.25-2.08,7.96-5.06-2.4-.14-4.81-.05-7.13-.45-4.28-.74-7.79-2.84-10.4-6.43-2.68-3.68-3.53-7.74-3.35-12.22.17-4.32,1.68-8.15,4.12-11.52,3.62-4.99,8.57-8.34,14.26-10.73,9.3-3.89,18.87-5.52,28.88-3.81,7.03,1.2,13.52,3.72,18.93,8.47,1.75,1.54,3.35,3.54,2.76,6.13-.27,1.19-1.13,2.4-2.08,3.19-.33.27-1.84-.52-2.56-1.11-3.66-3.01-7.56-5.57-12.04-7.17-6.52-2.33-13.14-3.06-20.04-1.88-8.04,1.37-14.86,4.88-20.77,10.43-3.95,3.71-5.09,9.86-1.91,14.98,2.71,4.36,8.25,6.43,13.18,5.03,2.87-.81,4.82-2.83,7.04-4.52,4.19-3.19,11.61-3.9,15.81-1.01,2.62,1.8,5.02,3.91,7.61,5.74,6.02,4.25,12.63,5.1,19.68,3.24,3.88-1.03,7.07-3.23,10.11-5.74,1.8-1.49,4.08-1.26,5.45.35,1.23,1.45,1.05,4.23-.52,5.6-8.99,7.85-19.21,10.58-30.8,7.13-5.33-1.58-9.76-4.78-13.85-8.43-1.29-1.15-2.79-2.06-4.32-1.8-4.81.81-8.51,3.48-10.24,8.1-2,5.33-.64,10.11,3.15,14.32,5.2,5.76,12.11,8.4,19.25,10.42,3.83,1.08,6.12,3.13,7.32,6.81,1.11,3.39,2.28,6.78,3.75,10.01,1.43,3.14,4.02,4.96,7.6,5.32,5.11.53,8.37-3.56,9.82-7.09,1.59-3.86,2.73-7.9,4.11-11.84,1.03-2.94,2.75-5.21,5.75-6.57,6.66-3.03,12.4-7.32,16.9-13.15,3.2-4.16,5.29-8.88,5.9-14.05.68-5.76-.32-11.36-3.47-16.35Z"/>
  <g>
    <path class="cls-3" d="M170.21,32.92c2.21,1.12,3.9,2.73,5.07,4.82,1.18,2.09,1.76,4.54,1.76,7.37s-.59,5.28-1.76,7.35c-1.18,2.07-2.87,3.66-5.07,4.76-2.21,1.1-4.82,1.65-7.83,1.65h-8.6v-27.63h8.6c3.01,0,5.62.56,7.83,1.68ZM170.55,53.05c1.88-1.89,2.81-4.54,2.81-7.95s-.94-6.12-2.83-8.05-4.6-2.89-8.15-2.89h-4.99v21.72h4.99c3.57,0,6.29-.94,8.17-2.83Z"/>
    <path class="cls-3" d="M180.69,32.9c-.48-.48-.71-1.06-.71-1.74s.24-1.27.71-1.74c.48-.48,1.06-.71,1.74-.71s1.22.24,1.68.71c.46.48.69,1.06.69,1.74s-.23,1.27-.69,1.74c-.46.48-1.02.71-1.68.71s-1.27-.24-1.74-.71ZM184.18,37.14v21.72h-3.61v-21.72h3.61Z"/>
    <path class="cls-3" d="M202.99,38.01c1.41.82,2.46,1.85,3.15,3.09v-3.96h3.65v22.2c0,1.98-.42,3.75-1.27,5.29-.85,1.55-2.05,2.75-3.63,3.63-1.57.87-3.4,1.31-5.49,1.31-2.85,0-5.23-.67-7.13-2.02s-3.03-3.18-3.37-5.51h3.57c.4,1.32,1.21,2.38,2.46,3.19,1.24.81,2.73,1.21,4.48,1.21,1.98,0,3.6-.62,4.85-1.86,1.25-1.24,1.88-2.99,1.88-5.23v-4.56c-.71,1.27-1.77,2.33-3.17,3.17-1.4.85-3.04,1.27-4.91,1.27s-3.68-.48-5.25-1.43c-1.57-.95-2.81-2.29-3.71-4-.9-1.72-1.35-3.67-1.35-5.87s.45-4.17,1.35-5.85c.9-1.68,2.13-2.98,3.71-3.9,1.57-.92,3.32-1.39,5.25-1.39s3.52.41,4.93,1.23ZM205.15,43.68c-.66-1.21-1.55-2.15-2.68-2.79-1.12-.65-2.36-.97-3.71-.97s-2.58.32-3.69.95-2,1.56-2.66,2.77c-.66,1.22-.99,2.64-.99,4.28s.33,3.11.99,4.34c.66,1.23,1.55,2.17,2.66,2.81,1.11.65,2.34.97,3.69.97s2.58-.32,3.71-.97c1.12-.65,2.01-1.59,2.68-2.81.66-1.23.99-2.66.99-4.3s-.33-3.06-.99-4.28Z"/>
    <path class="cls-3" d="M214.78,32.9c-.48-.48-.71-1.06-.71-1.74s.24-1.27.71-1.74c.48-.48,1.06-.71,1.74-.71s1.22.24,1.68.71c.46.48.69,1.06.69,1.74s-.23,1.27-.69,1.74c-.46.48-1.02.71-1.68.71s-1.27-.24-1.74-.71ZM218.27,37.14v21.72h-3.61v-21.72h3.61Z"/>
    <path class="cls-3" d="M227.58,40.11v12.8c0,1.06.22,1.8.67,2.24.45.44,1.23.65,2.34.65h2.66v3.05h-3.25c-2.01,0-3.51-.46-4.52-1.39-1-.92-1.51-2.44-1.51-4.56v-12.8h-2.81v-2.97h2.81v-5.47h3.61v5.47h5.67v2.97h-5.67Z"/>
    <path class="cls-3" d="M236.38,42.07c.9-1.68,2.13-2.98,3.71-3.9,1.57-.92,3.32-1.39,5.25-1.39s3.55.41,4.95,1.23c1.4.82,2.44,1.85,3.13,3.09v-3.96h3.65v21.72h-3.65v-4.04c-.71,1.27-1.78,2.32-3.19,3.15-1.41.83-3.06,1.25-4.93,1.25s-3.67-.48-5.23-1.43-2.79-2.29-3.69-4c-.9-1.72-1.35-3.67-1.35-5.87s.45-4.17,1.35-5.85ZM252.43,43.68c-.66-1.21-1.55-2.15-2.68-2.79s-2.36-.97-3.71-.97-2.58.32-3.69.95c-1.11.63-2,1.56-2.66,2.77-.66,1.22-.99,2.64-.99,4.28s.33,3.11.99,4.34c.66,1.23,1.55,2.17,2.66,2.81,1.11.65,2.34.97,3.69.97s2.58-.32,3.71-.97c1.12-.65,2.01-1.59,2.68-2.81.66-1.23.99-2.66.99-4.3s-.33-3.06-.99-4.28Z"/>
    <path class="cls-3" d="M265.55,29.53v29.33h-3.61v-29.33h3.61Z"/>
    <path class="cls-3" d="M309.39,31.19v27.67h-5.55v-17.99l-7.41,17.99h-4.2l-7.45-17.99v17.99h-5.55v-27.67h6.3l8.8,20.57,8.8-20.57h6.26Z"/>
    <path class="cls-3" d="M314,33.35c-.65-.62-.97-1.39-.97-2.32s.32-1.7.97-2.32c.65-.62,1.46-.93,2.44-.93s1.79.31,2.44.93c.65.62.97,1.39.97,2.32s-.32,1.7-.97,2.32c-.65.62-1.46.93-2.44.93s-1.79-.31-2.44-.93ZM319.18,36.9v21.96h-5.55v-21.96h5.55Z"/>
    <path class="cls-3" d="M341.93,39.06c1.61,1.65,2.42,3.96,2.42,6.92v12.88h-5.55v-12.13c0-1.74-.44-3.08-1.31-4.02s-2.06-1.41-3.57-1.41-2.74.47-3.63,1.41c-.89.94-1.33,2.28-1.33,4.02v12.13h-5.55v-21.96h5.55v2.73c.74-.95,1.68-1.7,2.83-2.24s2.41-.81,3.79-.81c2.62,0,4.73.83,6.34,2.48Z"/>
    <path class="cls-3" d="M348.29,41.89c.88-1.72,2.09-3.04,3.63-3.96,1.53-.92,3.24-1.39,5.11-1.39,1.43,0,2.79.31,4.08.93,1.29.62,2.33,1.45,3.09,2.48v-10.42h5.63v29.33h-5.63v-3.25c-.69,1.08-1.65,1.96-2.89,2.62s-2.68.99-4.32.99c-1.85,0-3.54-.48-5.07-1.43-1.53-.95-2.74-2.29-3.63-4.02-.89-1.73-1.33-3.72-1.33-5.96s.44-4.19,1.33-5.91ZM363.45,44.41c-.53-.96-1.24-1.7-2.14-2.22-.9-.52-1.86-.77-2.89-.77s-1.98.25-2.85.75c-.87.5-1.58,1.24-2.12,2.2-.54.96-.81,2.11-.81,3.43s.27,2.48.81,3.47c.54.99,1.25,1.75,2.14,2.28.88.53,1.83.79,2.83.79s1.99-.26,2.89-.77c.9-.52,1.61-1.25,2.14-2.22.53-.96.79-2.12.79-3.47s-.26-2.5-.79-3.47Z"/>
    <path class="cls-3" d="M377.6,58.24c-1.43-.65-2.56-1.53-3.39-2.64s-1.29-2.34-1.37-3.69h5.59c.11.85.52,1.55,1.25,2.1.73.55,1.63.83,2.71.83s1.88-.21,2.48-.63c.59-.42.89-.96.89-1.62,0-.71-.36-1.25-1.09-1.61-.73-.36-1.88-.75-3.47-1.17-1.64-.4-2.98-.81-4.02-1.23-1.04-.42-1.94-1.07-2.7-1.94s-1.13-2.05-1.13-3.53c0-1.22.35-2.32,1.05-3.33.7-1,1.7-1.8,3.01-2.38,1.31-.58,2.85-.87,4.62-.87,2.62,0,4.7.65,6.26,1.96,1.56,1.31,2.42,3.07,2.58,5.29h-5.31c-.08-.87-.44-1.57-1.09-2.08-.65-.52-1.51-.77-2.6-.77-1,0-1.78.19-2.32.56-.54.37-.81.89-.81,1.55,0,.74.37,1.3,1.11,1.68.74.38,1.89.77,3.45,1.17,1.59.4,2.89.81,3.92,1.23,1.03.42,1.92,1.08,2.68,1.96.75.89,1.14,2.05,1.17,3.51,0,1.27-.35,2.4-1.05,3.41-.7,1-1.7,1.79-3.01,2.36-1.31.57-2.83.85-4.58.85s-3.41-.32-4.84-.97Z"/>
    <path class="cls-3" d="M407.52,57.81c-1.69-.94-3.02-2.27-3.98-3.98-.96-1.72-1.45-3.7-1.45-5.95s.5-4.23,1.49-5.94c.99-1.72,2.34-3.04,4.06-3.98,1.72-.94,3.63-1.41,5.75-1.41s4.03.47,5.75,1.41c1.72.94,3.07,2.27,4.06,3.98.99,1.72,1.49,3.7,1.49,5.94s-.51,4.23-1.53,5.95c-1.02,1.72-2.39,3.05-4.12,3.98-1.73.94-3.67,1.41-5.81,1.41s-4.02-.47-5.71-1.41ZM416.06,53.64c.89-.49,1.59-1.22,2.12-2.2.53-.98.79-2.17.79-3.57,0-2.09-.55-3.69-1.64-4.82-1.1-1.12-2.44-1.68-4.02-1.68s-2.91.56-3.98,1.68c-1.07,1.12-1.61,2.73-1.61,4.82s.52,3.69,1.57,4.82c1.04,1.12,2.36,1.68,3.94,1.68,1,0,1.95-.24,2.83-.73Z"/>
    <path class="cls-3" d="M446.05,39.06c1.61,1.65,2.42,3.96,2.42,6.92v12.88h-5.55v-12.13c0-1.74-.44-3.08-1.31-4.02s-2.06-1.41-3.57-1.41-2.74.47-3.63,1.41c-.89.94-1.33,2.28-1.33,4.02v12.13h-5.55v-21.96h5.55v2.73c.74-.95,1.68-1.7,2.83-2.24s2.41-.81,3.79-.81c2.62,0,4.73.83,6.34,2.48Z"/>
  </g>
  <g>
    <path class="cls-2" d="M154.71,91.16c-.83-.37-1.48-.89-1.95-1.55-.47-.66-.71-1.42-.73-2.29h2.21c.08.75.38,1.37.92,1.88.54.51,1.33.76,2.36.76s1.77-.25,2.34-.74c.57-.49.85-1.13.85-1.9,0-.61-.17-1.1-.5-1.48-.33-.38-.75-.67-1.25-.87s-1.18-.41-2.03-.64c-1.05-.27-1.89-.55-2.52-.82-.63-.27-1.17-.7-1.62-1.29-.45-.58-.67-1.37-.67-2.36,0-.87.22-1.63.66-2.3.44-.67,1.06-1.19,1.86-1.55.8-.37,1.71-.55,2.75-.55,1.49,0,2.71.37,3.66,1.12.95.75,1.49,1.73,1.61,2.96h-2.28c-.08-.61-.4-1.14-.96-1.61-.56-.46-1.31-.7-2.23-.7-.87,0-1.57.22-2.12.67-.55.45-.82,1.08-.82,1.88,0,.58.16,1.05.49,1.41.33.36.73.64,1.21.83.48.19,1.15.41,2.02.65,1.05.29,1.89.57,2.53.86.64.28,1.19.71,1.64,1.3.46.59.68,1.38.68,2.38,0,.78-.21,1.5-.62,2.19-.41.68-1.02,1.24-1.82,1.66-.81.43-1.76.64-2.85.64s-1.99-.19-2.82-.56Z"/>
    <path class="cls-2" d="M168.14,90.97c-.95-.53-1.69-1.29-2.23-2.27s-.81-2.12-.81-3.41.28-2.41.83-3.39c.55-.98,1.31-1.73,2.27-2.26s2.03-.79,3.21-.79,2.26.26,3.21.79,1.71,1.27,2.27,2.25c.55.97.83,2.11.83,3.4s-.28,2.43-.85,3.41c-.57.98-1.34,1.74-2.31,2.27s-2.05.8-3.24.8-2.23-.27-3.18-.8ZM173.41,89.42c.65-.35,1.18-.87,1.58-1.57.4-.7.6-1.55.6-2.55s-.2-1.85-.59-2.55c-.4-.7-.91-1.22-1.55-1.56-.64-.34-1.33-.51-2.07-.51s-1.46.17-2.09.51c-.63.34-1.14.86-1.52,1.56s-.57,1.55-.57,2.55.19,1.88.56,2.58c.37.7.87,1.22,1.49,1.56s1.31.51,2.05.51,1.44-.17,2.1-.52Z"/>
    <path class="cls-2" d="M185.54,80.78h-2.62v10.78h-2.07v-10.78h-1.62v-1.71h1.62v-.89c0-1.4.36-2.42,1.08-3.07.72-.65,1.88-.97,3.48-.97v1.73c-.91,0-1.55.18-1.93.54-.37.36-.56.95-.56,1.77v.89h2.62v1.71Z"/>
    <path class="cls-2" d="M190.49,80.78v7.36c0,.61.13,1.04.39,1.29.26.25.71.38,1.35.38h1.53v1.76h-1.87c-1.16,0-2.02-.27-2.6-.8s-.87-1.41-.87-2.62v-7.36h-1.62v-1.71h1.62v-3.15h2.07v3.15h3.26v1.71h-3.26Z"/>
    <path class="cls-2" d="M212.9,79.07l-3.9,12.49h-2.14l-3.01-9.92-3.01,9.92h-2.14l-3.92-12.49h2.12l2.87,10.49,3.1-10.49h2.12l3.03,10.51,2.83-10.51h2.05Z"/>
    <path class="cls-2" d="M214.95,81.91c.52-.97,1.23-1.71,2.13-2.25s1.91-.8,3.02-.8,2.04.24,2.85.71c.81.47,1.41,1.06,1.8,1.78v-2.28h2.1v12.49h-2.1v-2.33c-.41.73-1.02,1.33-1.84,1.81-.81.48-1.76.72-2.84.72s-2.11-.27-3.01-.82c-.9-.55-1.6-1.31-2.12-2.3-.52-.99-.77-2.11-.77-3.37s.26-2.4.77-3.36ZM224.19,82.83c-.38-.7-.89-1.23-1.54-1.61-.65-.37-1.36-.56-2.13-.56s-1.48.18-2.12.55c-.64.36-1.15.9-1.53,1.6s-.57,1.52-.57,2.46.19,1.79.57,2.5c.38.71.89,1.25,1.53,1.62.64.37,1.35.56,2.12.56s1.49-.19,2.13-.56c.65-.37,1.16-.91,1.54-1.62.38-.71.57-1.53.57-2.47s-.19-1.76-.57-2.46Z"/>
    <path class="cls-2" d="M234,79.43c.68-.4,1.5-.59,2.47-.59v2.14h-.55c-2.33,0-3.49,1.26-3.49,3.79v6.79h-2.07v-12.49h2.07v2.03c.36-.71.89-1.27,1.56-1.66Z"/>
    <path class="cls-2" d="M250.2,86.09h-9.99c.08,1.23.5,2.19,1.27,2.88.77.69,1.7,1.04,2.79,1.04.9,0,1.65-.21,2.25-.63s1.02-.98,1.27-1.68h2.23c-.33,1.2-1,2.18-2.01,2.93-1,.75-2.25,1.13-3.74,1.13-1.19,0-2.25-.27-3.18-.8-.94-.53-1.67-1.29-2.2-2.27-.53-.98-.8-2.12-.8-3.41s.26-2.42.77-3.4,1.24-1.72,2.18-2.25c.93-.52,2.01-.79,3.23-.79s2.23.26,3.15.78,1.62,1.23,2.11,2.13c.49.9.74,1.93.74,3.07,0,.4-.02.81-.07,1.25ZM247.6,82.36c-.35-.57-.83-1-1.42-1.3-.6-.3-1.27-.44-2-.44-1.05,0-1.94.33-2.68,1-.74.67-1.16,1.6-1.27,2.78h7.89c0-.79-.17-1.47-.52-2.04Z"/>
    <path class="cls-2" d="M259.37,79.42c.7-1.24,1.65-2.21,2.86-2.91,1.21-.7,2.55-1.05,4.02-1.05,1.73,0,3.25.42,4.54,1.25,1.29.84,2.23,2.02,2.83,3.56h-2.49c-.44-.96-1.08-1.69-1.9-2.21-.83-.52-1.82-.78-2.98-.78s-2.11.26-2.99.78c-.88.52-1.57,1.25-2.08,2.2-.5.95-.75,2.06-.75,3.34s.25,2.37.75,3.32c.5.95,1.19,1.68,2.08,2.2.88.52,1.88.77,2.99.77s2.15-.25,2.98-.76c.83-.51,1.46-1.24,1.9-2.2h2.49c-.59,1.52-1.54,2.69-2.83,3.52-1.29.83-2.8,1.24-4.54,1.24-1.47,0-2.82-.35-4.02-1.04-1.21-.69-2.16-1.65-2.86-2.88-.7-1.23-1.05-2.62-1.05-4.17s.35-2.94,1.05-4.18Z"/>
    <path class="cls-2" d="M278.96,90.97c-.95-.53-1.69-1.29-2.23-2.27-.54-.98-.81-2.12-.81-3.41s.28-2.41.83-3.39c.55-.98,1.31-1.73,2.27-2.26.96-.52,2.03-.79,3.21-.79s2.26.26,3.21.79c.96.52,1.71,1.27,2.27,2.25s.83,2.11.83,3.4-.28,2.43-.85,3.41-1.34,1.74-2.31,2.27-2.05.8-3.24.8-2.23-.27-3.18-.8ZM284.24,89.42c.65-.35,1.18-.87,1.58-1.57.4-.7.6-1.55.6-2.55s-.2-1.85-.59-2.55-.91-1.22-1.55-1.56c-.64-.34-1.33-.51-2.08-.51s-1.46.17-2.09.51c-.63.34-1.14.86-1.52,1.56s-.57,1.55-.57,2.55.19,1.88.56,2.58c.37.7.87,1.22,1.49,1.56s1.31.51,2.05.51,1.44-.17,2.1-.52Z"/>
    <path class="cls-2" d="M308.91,79.44c.76.4,1.36,1.01,1.8,1.81.44.81.66,1.79.66,2.94v7.36h-2.05v-7.07c0-1.25-.31-2.2-.92-2.86-.62-.66-1.45-.99-2.5-.99s-1.94.35-2.58,1.04c-.64.69-.96,1.69-.96,3v6.89h-2.05v-7.07c0-1.25-.31-2.2-.92-2.86-.62-.66-1.45-.99-2.5-.99s-1.94.35-2.58,1.04c-.64.69-.96,1.69-.96,3v6.89h-2.08v-12.49h2.08v1.8c.41-.65.96-1.15,1.65-1.5s1.46-.52,2.29-.52c1.05,0,1.98.24,2.78.71.81.47,1.41,1.16,1.8,2.08.35-.88.93-1.57,1.73-2.05.8-.49,1.7-.73,2.69-.73s1.84.2,2.6.6Z"/>
    <path class="cls-2" d="M318.68,79.58c.81-.48,1.76-.72,2.84-.72s2.12.27,3.02.8,1.62,1.28,2.13,2.25c.52.96.78,2.09.78,3.36s-.26,2.39-.78,3.37c-.52.99-1.23,1.76-2.13,2.3-.9.55-1.91.82-3.02.82s-2-.24-2.82-.72c-.81-.48-1.43-1.07-1.86-1.79v8.23h-2.07v-18.42h2.07v2.3c.41-.71,1.02-1.31,1.84-1.79ZM324.75,82.81c-.38-.7-.89-1.23-1.54-1.6-.65-.37-1.36-.55-2.13-.55s-1.46.19-2.11.56c-.65.37-1.16.91-1.55,1.62-.39.71-.58,1.52-.58,2.45s.19,1.77.58,2.47c.39.71.9,1.25,1.55,1.62.65.37,1.35.56,2.11.56s1.49-.19,2.13-.56c.65-.37,1.16-.91,1.54-1.62.38-.71.57-1.54.57-2.5s-.19-1.76-.57-2.46Z"/>
    <path class="cls-2" d="M330.18,81.91c.52-.97,1.23-1.71,2.13-2.25.9-.53,1.91-.8,3.02-.8s2.04.24,2.85.71c.81.47,1.41,1.06,1.8,1.78v-2.28h2.1v12.49h-2.1v-2.33c-.41.73-1.02,1.33-1.83,1.81-.81.48-1.76.72-2.84.72s-2.11-.27-3.01-.82c-.9-.55-1.6-1.31-2.12-2.3-.52-.99-.78-2.11-.78-3.37s.26-2.4.78-3.36ZM339.41,82.83c-.38-.7-.89-1.23-1.54-1.61-.65-.37-1.36-.56-2.13-.56s-1.48.18-2.12.55c-.64.36-1.15.9-1.53,1.6-.38.7-.57,1.52-.57,2.46s.19,1.79.57,2.5c.38.71.89,1.25,1.53,1.62.64.37,1.34.56,2.12.56s1.49-.19,2.13-.56c.65-.37,1.16-.91,1.54-1.62.38-.71.57-1.53.57-2.47s-.19-1.76-.57-2.46Z"/>
    <path class="cls-2" d="M355.37,80.22c.94.92,1.41,2.25,1.41,3.98v7.36h-2.05v-7.07c0-1.25-.31-2.2-.93-2.86-.62-.66-1.47-.99-2.55-.99s-1.96.34-2.61,1.03c-.65.68-.97,1.68-.97,2.99v6.91h-2.07v-12.49h2.07v1.78c.41-.64.97-1.13,1.68-1.48s1.49-.52,2.34-.52c1.52,0,2.75.46,3.69,1.38Z"/>
    <path class="cls-2" d="M370.94,79.07l-7.52,18.38h-2.14l2.46-6.02-5.04-12.36h2.3l3.92,10.12,3.88-10.12h2.14Z"/>
  </g>
</svg>