<?xml version="1.0" encoding="utf-8"?>
<!-- Generator: Adobe Illustrator 19.0.0, SVG Export Plug-In . SVG Version: 6.00 Build 0)  -->
<svg version="1.1" id="Layer_1" xmlns="http://www.w3.org/2000/svg" xmlns:xlink="http://www.w3.org/1999/xlink" x="0px" y="0px"
	 viewBox="-1045 660 468 122" style="enable-background:new -1045 660 468 122;" xml:space="preserve">
<style type="text/css">
	.st0{fill:url(#SVGID_1_);}
	.st1{fill:#898989;}
</style>
<linearGradient id="SVGID_1_" gradientUnits="userSpaceOnUse" x1="-924.7263" y1="754.64" x2="-1010.4163" y2="668.95" gradientTransform="matrix(1 0 0 1 0 4)">
	<stop  offset="0" style="stop-color:#29378D"/>
	<stop  offset="1" style="stop-color:#ED1D8F"/>
</linearGradient>
<path class="st0" d="M-915.9,703.2c-4-6.3-9.1-10.8-17.2-10.2c-3.5,0.3-6.3,2-8.3,4.8c2.3,0.1,4.6,0,6.7,0.3
	c8.6,1.2,14.7,9.1,14.9,17.3c0.1,6.3-2.5,11.7-6.8,16.2c-3.5,3.6-7.6,6.2-12.1,8.4c-3.1,1.5-6.2,3.3-7.7,6.7
	c-0.8,1.9-1.6,3.7-2.3,5.7c-1.1,3.3-2.1,6.6-3.3,9.8c-0.3,0.8-1.4,1.9-2.1,1.8c-0.7,0-1.8-1.1-2.1-1.9c-1.3-3.1-2.3-6.3-3.4-9.4
	c-1.8-4.9-5-8.2-10.2-9.5c-5.6-1.5-10.9-3.5-15.7-6.9c-3.3-2.4-4.2-6.3-2.1-9.4c0.8-1.1,1.9-1.2,3-0.4c2.2,1.6,4.3,3.3,6.6,4.7
	c8.9,5.5,18.6,6.6,28.7,4.4c6.4-1.4,12.2-4.3,17.1-8.8c3.7-3.4,5.8-7.6,4.5-12.9c-1.3-5-6.8-9.3-11.7-9c-3.5,0.3-6.4,1.8-9,4
	c-5.2,4.6-14.4,5.2-19.7,0.2c-2.9-2.8-6-5.3-10-6.6c-9-3-16.9-1.2-24,4.9c-1.2,1-2.5,1.7-4.1,1.3c-1.8-0.4-2.7-1.8-2.9-3.3
	c-0.3-1.8,0.7-3.3,2.1-4.3c2.4-1.7,4.8-3.5,7.3-4.8c5.9-3,12.3-3.8,18.8-2.8c6.9,1.1,12.8,4.5,17.7,9.4c2.7,2.7,6.8,2.5,9.3,0.3
	c1.1-0.9,2.1-1.8,2.9-2.9c2.1-2.6,3.1-5.8,3-9c-0.1-3.6-1.7-6.7-4.2-9.3c-3.5-3.7-7.7-6.1-12.3-7.9c-6.5-2.6-13.3-4.1-20.3-3.9
	c-4,0.1-7.9,0.7-11.8,1.3c-7.3,1.1-14,3.8-20.1,7.8c-4.3,2.8-7.8,6.5-10.7,10.9c-2.8,4.2-4.3,8.7-4.8,13.6c-0.5,5.7,0.6,11.2,4,16.1
	c4,5.9,9.3,9.4,16.6,8.8c3.5-0.3,6.3-2.1,8-5.1c-2.4-0.1-4.8,0-7.1-0.5c-4.3-0.7-7.8-2.8-10.4-6.4c-2.7-3.7-3.5-7.7-3.3-12.2
	c0.2-4.3,1.7-8.2,4.1-11.5c3.6-5,8.6-8.3,14.3-10.7c9.3-3.9,18.9-5.5,28.9-3.8c7,1.2,13.5,3.7,18.9,8.5c1.8,1.5,3.3,3.5,2.8,6.1
	c-0.3,1.2-1.1,2.4-2.1,3.2c-0.3,0.3-1.8-0.5-2.6-1.1c-3.7-3-7.6-5.6-12-7.2c-6.5-2.3-13.1-3.1-20-1.9c-8,1.4-14.9,4.9-20.8,10.4
	c-4,3.7-5.1,9.9-1.9,15c2.7,4.4,8.3,6.4,13.2,5c2.9-0.8,4.8-2.8,7-4.5c4.2-3.2,11.6-3.9,15.8-1c2.6,1.8,5,3.9,7.6,5.7
	c6,4.3,12.6,5.1,19.7,3.2c3.9-1,7.1-3.2,10.1-5.7c1.8-1.5,4.1-1.3,5.5,0.4c1.2,1.4,1,4.2-0.5,5.6c-9,7.8-19.2,10.6-30.8,7.1
	c-5.3-1.6-9.8-4.8-13.8-8.4c-1.3-1.2-2.8-2.1-4.3-1.8c-4.8,0.8-8.5,3.5-10.2,8.1c-2,5.3-0.6,10.1,3.2,14.3
	c5.2,5.8,12.1,8.4,19.3,10.4c3.8,1.1,6.1,3.1,7.3,6.8c1.1,3.4,2.3,6.8,3.8,10c1.4,3.1,4,5,7.6,5.3c5.1,0.5,8.4-3.6,9.8-7.1
	c1.6-3.9,2.7-7.9,4.1-11.8c1-2.9,2.8-5.2,5.8-6.6c6.7-3,12.4-7.3,16.9-13.2c3.2-4.2,5.3-8.9,5.9-14
	C-911.8,713.7-912.8,708.1-915.9,703.2L-915.9,703.2z"/>
<path class="st1" d="M-868.1,697.3c-1.3-2.3-3.1-4-5.5-5.2c-2.3-1.2-5.1-1.8-8.3-1.8h-9.6v29.6h9.6c3.2,0,5.9-0.6,8.3-1.8
	c2.4-1.2,4.2-2.9,5.5-5.2c1.3-2.2,1.9-4.9,1.9-7.8C-866.3,702.1-866.9,699.5-868.1,697.3z M-881.9,714.9h-4v-19.7h4
	c3.3,0,5.7,0.9,7.4,2.6c1.7,1.7,2.5,4.2,2.5,7.3c0,3.2-0.8,5.5-2.5,7.3C-876.2,714.1-878.6,714.9-881.9,714.9z"/>
<g>
	<path class="st1" d="M-857.5,691.2c0,0.9-0.3,1.8-1,2.4c-0.6,0.7-1.4,1-2.4,1c-0.9,0-1.8-0.4-2.5-1c-0.7-0.7-1-1.5-1-2.5
		c0-0.9,0.4-1.8,1-2.4c0.7-0.7,1.5-1,2.5-1c0.9,0,1.7,0.3,2.4,1S-857.5,690.2-857.5,691.2z"/>
	<rect x="-863.7" y="696.1" class="st1" width="5.6" height="23.7"/>
</g>
<path class="st1" d="M-837.2,696.1v2.2c-0.5-0.4-1-0.8-1.7-1.2l-1.5-0.9v0.2c-1.2-0.4-2.5-0.7-3.9-0.7c-2.1,0-4,0.5-5.8,1.5
	c-1.7,1-3.1,2.4-4.1,4.3c-1,1.8-1.5,3.9-1.5,6.3c0,2.3,0.5,4.5,1.5,6.3c1,1.9,2.4,3.3,4.1,4.4c1.7,1,3.7,1.6,5.8,1.6
	s3.9-0.5,5.4-1.4c0.6-0.4,1.2-0.8,1.7-1.2v1.8c0,2-0.5,3.5-1.6,4.5c-1.1,1.1-2.4,1.6-4.2,1.6c-1.6,0-2.8-0.3-3.9-1
	c-1-0.7-1.7-1.5-2-2.6l-0.2-0.7h-5.5l0.2,1.1c0.4,2.6,1.7,4.7,3.8,6.2s4.7,2.2,7.7,2.2c2.2,0,4.3-0.5,6-1.4c1.7-1,3.1-2.3,4-4
	s1.4-3.6,1.4-5.8v-23.3H-837.2z M-838,711.8c-0.6,1.1-1.3,1.9-2.3,2.4c-1,0.6-2,0.8-3.2,0.8s-2.2-0.3-3.2-0.8
	c-0.9-0.5-1.7-1.4-2.3-2.4c-0.6-1.1-0.9-2.4-0.9-3.9s0.3-2.7,0.9-3.8c0.6-1,1.3-1.8,2.3-2.4c1-0.5,2-0.8,3.2-0.8s2.3,0.3,3.2,0.8
	s1.7,1.3,2.3,2.4c0.6,1.1,0.9,2.3,0.9,3.8C-837.2,709.4-837.5,710.7-838,711.8z"/>
<g>
	<rect x="-828.6" y="696.1" class="st1" width="5.6" height="23.7"/>
	<path class="st1" d="M-822.4,691.2c0,0.9-0.3,1.8-1,2.4c-0.6,0.7-1.4,1-2.4,1c-0.9,0-1.8-0.4-2.5-1c-0.7-0.7-1-1.5-1-2.5
		c0-0.9,0.3-1.8,1-2.4c0.7-0.7,1.5-1,2.5-1c0.9,0,1.7,0.3,2.4,1C-822.7,689.4-822.4,690.2-822.4,691.2z"/>
</g>
<path class="st1" d="M-811.7,701.1v11.8c0,0.8,0.1,1.3,0.4,1.5c0.1,0.1,0.5,0.4,1.6,0.4h3.7v5h-4.3c-2.3,0-4-0.6-5.2-1.6
	c-1.2-1.1-1.8-2.9-1.8-5.3v-11.8h-2.8v-5h2.8v-5.5h5.6v5.5h5.7v5H-811.7z"/>
<path class="st1" d="M-786.9,696.1v2.2c-0.5-0.4-1-0.8-1.6-1.2c-1.6-0.9-3.4-1.4-5.5-1.4s-4,0.5-5.8,1.5c-1.7,1-3.1,2.4-4.1,4.3
	c-1,1.8-1.5,3.9-1.5,6.3c0,2.4,0.5,4.5,1.5,6.3c1,1.9,2.3,3.3,4,4.4c1.7,1,3.7,1.6,5.8,1.6c2,0,3.9-0.5,5.4-1.4
	c0.6-0.4,1.2-0.8,1.7-1.2v2.2h5.7v-23.6H-786.9z M-787.8,711.8c-0.6,1.1-1.3,1.9-2.3,2.4c-1,0.6-2,0.8-3.2,0.8s-2.2-0.3-3.2-0.8
	c-0.9-0.5-1.7-1.4-2.3-2.4c-0.6-1.1-0.9-2.4-0.9-3.9s0.3-2.7,0.9-3.8c0.6-1,1.3-1.8,2.3-2.4c1-0.5,2-0.8,3.2-0.8s2.2,0.3,3.2,0.8
	c0.9,0.5,1.7,1.3,2.3,2.4c0.6,1.1,0.9,2.3,0.9,3.8S-787.2,710.7-787.8,711.8z"/>
<rect x="-777.4" y="688.5" class="st1" width="5.6" height="31.3"/>
<path class="st1" d="M-728.2,691.2v27.7h-5.5v-18l-7.4,18h-4.2l-7.5-18v18h-5.5v-27.7h6.3l8.8,20.6l8.8-20.6H-728.2L-728.2,691.2z"
	/>
<path class="st1" d="M-723.6,693.4c-0.7-0.6-1-1.4-1-2.3c0-0.9,0.3-1.7,1-2.3c0.6-0.6,1.5-0.9,2.4-0.9c1,0,1.8,0.3,2.4,0.9
	c0.6,0.6,1,1.4,1,2.3c0,0.9-0.3,1.7-1,2.3s-1.5,0.9-2.4,0.9C-722.2,694.3-723,694-723.6,693.4z M-718.5,696.9v22h-5.5v-22H-718.5z"
	/>
<path class="st1" d="M-695.7,699.1c1.6,1.7,2.4,4,2.4,6.9v12.9h-5.5v-12.1c0-1.7-0.4-3.1-1.3-4s-2.1-1.4-3.6-1.4s-2.7,0.5-3.6,1.4
	s-1.3,2.3-1.3,4v12.1h-5.5v-22h5.5v2.7c0.7-1,1.7-1.7,2.8-2.2c1.2-0.5,2.4-0.8,3.8-0.8C-699.4,696.6-697.3,697.4-695.7,699.1
	L-695.7,699.1z"/>
<path class="st1" d="M-689.3,701.9c0.9-1.7,2.1-3,3.6-4c1.5-0.9,3.2-1.4,5.1-1.4c1.4,0,2.8,0.3,4.1,0.9c1.3,0.6,2.3,1.5,3.1,2.5
	v-10.4h5.6v29.3h-5.6v-3.3c-0.7,1.1-1.6,2-2.9,2.6c-1.2,0.7-2.7,1-4.3,1c-1.8,0-3.5-0.5-5.1-1.4c-1.5-0.9-2.7-2.3-3.6-4
	c-0.9-1.7-1.3-3.7-1.3-6S-690.2,703.6-689.3,701.9L-689.3,701.9z M-674.2,704.4c-0.5-1-1.2-1.7-2.1-2.2s-1.9-0.8-2.9-0.8
	s-2,0.3-2.9,0.8s-1.6,1.2-2.1,2.2s-0.8,2.1-0.8,3.4s0.3,2.5,0.8,3.5s1.3,1.8,2.1,2.3c0.9,0.5,1.8,0.8,2.8,0.8s2-0.3,2.9-0.8
	s1.6-1.3,2.1-2.2c0.5-1,0.8-2.1,0.8-3.5C-673.4,706.5-673.7,705.4-674.2,704.4z"/>
<path class="st1" d="M-660,718.2c-1.4-0.6-2.6-1.5-3.4-2.6c-0.8-1.1-1.3-2.3-1.4-3.7h5.6c0.1,0.8,0.5,1.5,1.3,2.1
	c0.7,0.5,1.6,0.8,2.7,0.8c1.1,0,1.9-0.2,2.5-0.6c0.6-0.4,0.9-1,0.9-1.6c0-0.7-0.4-1.3-1.1-1.6c-0.7-0.4-1.9-0.8-3.5-1.2
	s-3-0.8-4-1.2s-1.9-1.1-2.7-1.9s-1.1-2-1.1-3.5c0-1.2,0.4-2.3,1-3.3c0.7-1,1.7-1.8,3-2.4c1.3-0.6,2.9-0.9,4.6-0.9
	c2.6,0,4.7,0.6,6.3,2s2.4,3.1,2.6,5.3h-5.3c-0.1-0.9-0.4-1.6-1.1-2.1c-0.6-0.5-1.5-0.8-2.6-0.8c-1,0-1.8,0.2-2.3,0.6
	c-0.5,0.4-0.8,0.9-0.8,1.5c0,0.7,0.4,1.3,1.1,1.7c0.7,0.4,1.9,0.8,3.5,1.2s2.9,0.8,3.9,1.2s1.9,1.1,2.7,2s1.1,2,1.2,3.5
	c0,1.3-0.4,2.4-1,3.4c-0.7,1-1.7,1.8-3,2.4s-2.8,0.9-4.6,0.9S-658.6,718.9-660,718.2L-660,718.2z"/>
<path class="st1" d="M-630.1,717.8c-1.7-0.9-3-2.3-4-4s-1.5-3.7-1.5-6s0.5-4.2,1.5-5.9s2.3-3,4.1-4c1.7-0.9,3.6-1.4,5.8-1.4
	s4,0.5,5.8,1.4c1.7,0.9,3.1,2.3,4.1,4s1.5,3.7,1.5,5.9s-0.5,4.2-1.5,6c-1,1.7-2.4,3-4.1,4c-1.7,0.9-3.7,1.4-5.8,1.4
	C-626.5,719.2-628.4,718.8-630.1,717.8L-630.1,717.8z M-621.6,713.6c0.9-0.5,1.6-1.2,2.1-2.2s0.8-2.2,0.8-3.6c0-2.1-0.5-3.7-1.6-4.8
	s-2.4-1.7-4-1.7s-2.9,0.6-4,1.7s-1.6,2.7-1.6,4.8s0.5,3.7,1.6,4.8c1,1.1,2.4,1.7,3.9,1.7C-623.4,714.4-622.5,714.1-621.6,713.6z"/>
<path class="st1" d="M-591.6,699.1c1.6,1.7,2.4,4,2.4,6.9v12.9h-5.5v-12.1c0-1.7-0.4-3.1-1.3-4s-2.1-1.4-3.6-1.4s-2.7,0.5-3.6,1.4
	s-1.3,2.3-1.3,4v12.1h-5.5v-22h5.5v2.7c0.7-1,1.7-1.7,2.8-2.2c1.2-0.5,2.4-0.8,3.8-0.8C-595.3,696.6-593.2,697.4-591.6,699.1
	L-591.6,699.1z"/>
<g>
	<path class="st1" d="M-889.6,751.2c-0.8-0.4-1.5-0.9-2-1.6c-0.5-0.7-0.7-1.4-0.7-2.3h2.2c0.1,0.8,0.4,1.4,0.9,1.9s1.3,0.8,2.4,0.8
		s1.8-0.3,2.3-0.7c0.6-0.5,0.9-1.1,0.9-1.9c0-0.6-0.2-1.1-0.5-1.5s-0.8-0.7-1.3-0.9s-1.2-0.4-2-0.6c-1.1-0.3-1.9-0.6-2.5-0.8
		c-0.6-0.3-1.2-0.7-1.6-1.3c-0.5-0.6-0.7-1.4-0.7-2.4c0-0.9,0.2-1.6,0.7-2.3s1.1-1.2,1.9-1.5c0.8-0.4,1.7-0.6,2.8-0.6
		c1.5,0,2.7,0.4,3.7,1.1c0.9,0.8,1.5,1.7,1.6,3h-2.3c-0.1-0.6-0.4-1.1-1-1.6s-1.3-0.7-2.2-0.7s-1.6,0.2-2.1,0.7
		c-0.6,0.5-0.8,1.1-0.8,1.9c0,0.6,0.2,1,0.5,1.4s0.7,0.6,1.2,0.8s1.1,0.4,2,0.6c1,0.3,1.9,0.6,2.5,0.9c0.6,0.3,1.2,0.7,1.6,1.3
		c0.5,0.6,0.7,1.4,0.7,2.4c0,0.8-0.2,1.5-0.6,2.2c-0.4,0.7-1,1.2-1.8,1.7c-0.8,0.4-1.8,0.6-2.8,0.6S-888.8,751.5-889.6,751.2
		L-889.6,751.2z"/>
	<path class="st1" d="M-876.2,751c-1-0.5-1.7-1.3-2.2-2.3s-0.8-2.1-0.8-3.4c0-1.3,0.3-2.4,0.8-3.4s1.3-1.7,2.3-2.3
		c1-0.5,2-0.8,3.2-0.8s2.3,0.3,3.2,0.8c1,0.5,1.7,1.3,2.3,2.3s0.8,2.1,0.8,3.4c0,1.3-0.3,2.4-0.9,3.4c-0.6,1-1.3,1.7-2.3,2.3
		c-1,0.5-2.1,0.8-3.2,0.8S-875.2,751.5-876.2,751L-876.2,751z M-870.9,749.4c0.6-0.3,1.2-0.9,1.6-1.6c0.4-0.7,0.6-1.5,0.6-2.5
		s-0.2-1.8-0.6-2.5c-0.4-0.7-0.9-1.2-1.5-1.6c-0.6-0.3-1.3-0.5-2.1-0.5s-1.5,0.2-2.1,0.5s-1.1,0.9-1.5,1.6s-0.6,1.5-0.6,2.5
		s0.2,1.9,0.6,2.6s0.9,1.2,1.5,1.6c0.6,0.3,1.3,0.5,2,0.5C-872.3,750-871.6,749.8-870.9,749.4L-870.9,749.4z"/>
	<path class="st1" d="M-858.8,740.8h-2.6v10.8h-2.1v-10.8h-1.6v-1.7h1.6v-0.9c0-1.4,0.4-2.4,1.1-3.1c0.7-0.6,1.9-1,3.5-1v1.7
		c-0.9,0-1.5,0.2-1.9,0.5c-0.4,0.4-0.6,0.9-0.6,1.8v0.9h2.6V740.8z"/>
	<path class="st1" d="M-853.8,740.8v7.4c0,0.6,0.1,1,0.4,1.3s0.7,0.4,1.3,0.4h1.5v1.8h-1.9c-1.2,0-2-0.3-2.6-0.8s-0.9-1.4-0.9-2.6
		v-7.4h-1.6v-1.8h1.6v-3.2h2.1v3.2h3.3v1.7H-853.8L-853.8,740.8z"/>
	<path class="st1" d="M-831.4,739.1l-3.9,12.5h-2.1l-3-9.9l-3,9.9h-2.1l-3.9-12.5h2.1l2.9,10.5l3.1-10.5h2.1l3,10.5l2.8-10.5H-831.4
		L-831.4,739.1z"/>
	<path class="st1" d="M-829.3,741.9c0.5-1,1.2-1.7,2.1-2.3c0.9-0.5,1.9-0.8,3-0.8s2,0.2,2.9,0.7c0.8,0.5,1.4,1.1,1.8,1.8v-2.2h2.1
		v12.5h-2.1v-2.3c-0.4,0.7-1,1.3-1.8,1.8s-1.8,0.7-2.8,0.7s-2.1-0.3-3-0.8s-1.6-1.3-2.1-2.3s-0.8-2.1-0.8-3.4
		C-830.1,744-829.9,742.9-829.3,741.9L-829.3,741.9z M-820.1,742.8c-0.4-0.7-0.9-1.2-1.5-1.6c-0.7-0.4-1.4-0.6-2.1-0.6
		s-1.5,0.2-2.1,0.5c-0.6,0.4-1.2,0.9-1.5,1.6s-0.6,1.5-0.6,2.5s0.2,1.8,0.6,2.5c0.4,0.7,0.9,1.3,1.5,1.6s1.3,0.6,2.1,0.6
		s1.5-0.2,2.1-0.6c0.6-0.4,1.2-0.9,1.5-1.6c0.4-0.7,0.6-1.5,0.6-2.5S-819.7,743.5-820.1,742.8L-820.1,742.8z"/>
	<path class="st1" d="M-810.3,739.4c0.7-0.4,1.5-0.6,2.5-0.6v2.1h-0.5c-2.3,0-3.5,1.3-3.5,3.8v6.8h-2.1v-12.4h2.1v2
		C-811.5,740.4-811,739.8-810.3,739.4L-810.3,739.4z"/>
	<path class="st1" d="M-794.1,746.1h-10c0.1,1.2,0.5,2.2,1.3,2.9s1.7,1,2.8,1c0.9,0,1.6-0.2,2.3-0.6c0.6-0.4,1-1,1.3-1.7h2.2
		c-0.3,1.2-1,2.2-2,2.9c-1,0.8-2.3,1.1-3.7,1.1c-1.2,0-2.3-0.3-3.2-0.8s-1.7-1.3-2.2-2.3s-0.8-2.1-0.8-3.4c0-1.3,0.3-2.4,0.8-3.4
		s1.2-1.7,2.2-2.3c0.9-0.5,2-0.8,3.2-0.8s2.2,0.3,3.1,0.8s1.6,1.2,2.1,2.1c0.5,0.9,0.7,1.9,0.7,3.1
		C-794,745.2-794.1,745.6-794.1,746.1L-794.1,746.1z M-796.7,742.4c-0.3-0.6-0.8-1-1.4-1.3c-0.6-0.3-1.3-0.4-2-0.4
		c-1,0-1.9,0.3-2.7,1s-1.2,1.6-1.3,2.8h7.9C-796.2,743.6-796.3,742.9-796.7,742.4z"/>
	<path class="st1" d="M-784.9,739.4c0.7-1.2,1.7-2.2,2.9-2.9s2.5-1.1,4-1.1c1.7,0,3.3,0.4,4.5,1.3c1.3,0.8,2.2,2,2.8,3.6h-2.5
		c-0.4-1-1.1-1.7-1.9-2.2c-0.8-0.5-1.8-0.8-3-0.8s-2.1,0.3-3,0.8s-1.6,1.3-2.1,2.2s-0.8,2.1-0.8,3.3c0,1.3,0.3,2.4,0.8,3.3
		s1.2,1.7,2.1,2.2c0.9,0.5,1.9,0.8,3,0.8s2.1-0.3,3-0.8c0.8-0.5,1.5-1.2,1.9-2.2h2.5c-0.6,1.5-1.5,2.7-2.8,3.5s-2.8,1.2-4.5,1.2
		c-1.5,0-2.8-0.3-4-1s-2.2-1.6-2.9-2.9c-0.7-1.2-1-2.6-1-4.2S-785.6,740.7-784.9,739.4L-784.9,739.4z"/>
	<path class="st1" d="M-765.3,751c-0.9-0.5-1.7-1.3-2.2-2.3s-0.8-2.1-0.8-3.4c0-1.3,0.3-2.4,0.8-3.4s1.3-1.7,2.3-2.3
		c1-0.5,2-0.8,3.2-0.8s2.3,0.3,3.2,0.8c1,0.5,1.7,1.3,2.3,2.3s0.8,2.1,0.8,3.4c0,1.3-0.3,2.4-0.8,3.4c-0.6,1-1.3,1.7-2.3,2.3
		c-1,0.5-2,0.8-3.2,0.8C-763.4,751.8-764.4,751.5-765.3,751L-765.3,751z M-760.1,749.4c0.7-0.3,1.2-0.9,1.6-1.6
		c0.4-0.7,0.6-1.5,0.6-2.5s-0.2-1.8-0.6-2.5c-0.4-0.7-0.9-1.2-1.5-1.6c-0.6-0.3-1.3-0.5-2.1-0.5s-1.5,0.2-2.1,0.5s-1.1,0.9-1.5,1.6
		s-0.6,1.5-0.6,2.5s0.2,1.9,0.6,2.6s0.9,1.2,1.5,1.6c0.6,0.3,1.3,0.5,2,0.5S-760.7,749.8-760.1,749.4L-760.1,749.4z"/>
	<path class="st1" d="M-735.4,739.4c0.8,0.4,1.4,1,1.8,1.8c0.4,0.8,0.7,1.8,0.7,2.9v7.4h-2v-7.1c0-1.3-0.3-2.2-0.9-2.9
		c-0.6-0.7-1.5-1-2.5-1c-1.1,0-1.9,0.3-2.6,1c-0.6,0.7-1,1.7-1,3v6.9h-2v-7.1c0-1.3-0.3-2.2-0.9-2.9c-0.6-0.7-1.5-1-2.5-1
		s-1.9,0.3-2.6,1c-0.6,0.7-1,1.7-1,3v6.9h-2.1v-12.2h2.1v1.8c0.4-0.7,1-1.2,1.6-1.5c0.7-0.3,1.5-0.5,2.3-0.5c1,0,2,0.2,2.8,0.7
		s1.4,1.2,1.8,2.1c0.4-0.9,0.9-1.6,1.7-2c0.8-0.5,1.7-0.7,2.7-0.7S-736.2,739.1-735.4,739.4L-735.4,739.4z"/>
	<path class="st1" d="M-725.6,739.6c0.8-0.5,1.8-0.7,2.8-0.7c1.1,0,2.1,0.3,3,0.8s1.6,1.3,2.1,2.3s0.8,2.1,0.8,3.4s-0.3,2.4-0.8,3.4
		s-1.2,1.8-2.1,2.3c-0.9,0.5-1.9,0.8-3,0.8s-2-0.2-2.8-0.7s-1.4-1.1-1.9-1.8v8.2h-2.1v-18.5h2.1v2.3
		C-727.1,740.7-726.4,740.1-725.6,739.6L-725.6,739.6z M-719.6,742.8c-0.4-0.7-0.9-1.2-1.5-1.6c-0.6-0.4-1.4-0.6-2.1-0.6
		s-1.5,0.2-2.1,0.6c-0.6,0.4-1.2,0.9-1.5,1.6c-0.4,0.7-0.6,1.5-0.6,2.5s0.2,1.8,0.6,2.5c0.4,0.7,0.9,1.3,1.5,1.6
		c0.7,0.4,1.4,0.6,2.1,0.6c0.8,0,1.5-0.2,2.1-0.6c0.7-0.4,1.2-0.9,1.5-1.6c0.4-0.7,0.6-1.5,0.6-2.5S-719.2,743.5-719.6,742.8
		L-719.6,742.8z"/>
	<path class="st1" d="M-714.1,741.9c0.5-1,1.2-1.7,2.1-2.3c0.9-0.5,1.9-0.8,3-0.8s2,0.2,2.9,0.7c0.8,0.5,1.4,1.1,1.8,1.8v-2.2h2.1
		v12.5h-2.1v-2.3c-0.4,0.7-1,1.3-1.8,1.8s-1.8,0.7-2.8,0.7s-2.1-0.3-3-0.8s-1.6-1.3-2.1-2.3s-0.8-2.1-0.8-3.4
		C-714.9,744-714.6,742.9-714.1,741.9L-714.1,741.9z M-704.9,742.8c-0.4-0.7-0.9-1.2-1.5-1.6c-0.7-0.4-1.4-0.6-2.1-0.6
		s-1.5,0.2-2.1,0.5c-0.6,0.4-1.2,0.9-1.5,1.6s-0.6,1.5-0.6,2.5s0.2,1.8,0.6,2.5c0.4,0.7,0.9,1.3,1.5,1.6s1.3,0.6,2.1,0.6
		s1.5-0.2,2.1-0.6c0.7-0.4,1.2-0.9,1.5-1.6c0.4-0.7,0.6-1.5,0.6-2.5S-704.5,743.5-704.9,742.8L-704.9,742.8z"/>
	<path class="st1" d="M-688.9,740.2c0.9,0.9,1.4,2.3,1.4,4v7.4h-2.1v-7.1c0-1.3-0.3-2.2-0.9-2.9s-1.5-1-2.6-1s-2,0.3-2.6,1
		s-1,1.7-1,3v6.9h-2.1v-12.4h2.1v1.8c0.4-0.6,1-1.1,1.7-1.5s1.5-0.5,2.3-0.5C-691.1,738.9-689.9,739.3-688.9,740.2L-688.9,740.2z"/>
	<path class="st1" d="M-673.4,739.1l-7.5,18.4h-2.1l2.5-6l-5-12.4h2.3l3.9,10.1l3.9-10.1H-673.4z"/>
</g>
</svg>
