<?xml version="1.0" encoding="utf-8"?>
<!-- Generator: Adobe Illustrator 19.0.0, SVG Export Plug-In . SVG Version: 6.00 Build 0)  -->
<svg version="1.1" id="Layer_1" xmlns="http://www.w3.org/2000/svg" xmlns:xlink="http://www.w3.org/1999/xlink" x="0px" y="0px"
	 viewBox="-1045 660 468 122" style="enable-background:new -1045 660 468 122;" xml:space="preserve">
<style type="text/css">
	.st0{fill:url(#SVGID_1_);}
	.st1{fill:#FFFFFF;}
	.st2{fill:#898989;}
</style>
<g>
	
		<linearGradient id="SVGID_1_" gradientUnits="userSpaceOnUse" x1="-925.5246" y1="684.4054" x2="-1011.2146" y2="770.0954" gradientTransform="matrix(1 0 0 -1 0 1444)">
		<stop  offset="0" style="stop-color:#29378D"/>
		<stop  offset="1" style="stop-color:#ED1D8F"/>
	</linearGradient>
	<path class="st0" d="M-916.6,704.1c-4-6.3-9.1-10.8-17.2-10.2c-3.5,0.3-6.3,2-8.3,4.8c2.3,0.1,4.6,0,6.7,0.3
		c8.6,1.2,14.7,9.1,14.9,17.3c0.1,6.3-2.5,11.7-6.8,16.2c-3.5,3.6-7.6,6.2-12.1,8.4c-3.1,1.5-6.2,3.3-7.7,6.7
		c-0.8,1.9-1.6,3.7-2.3,5.7c-1.1,3.3-2.1,6.6-3.3,9.8c-0.3,0.8-1.4,1.9-2.1,1.8c-0.7,0-1.8-1.1-2.1-1.9c-1.3-3.1-2.3-6.3-3.4-9.4
		c-1.8-4.9-5-8.2-10.2-9.5c-5.6-1.5-10.9-3.5-15.7-6.9c-3.3-2.4-4.2-6.3-2.1-9.4c0.8-1.1,1.9-1.2,3-0.4c2.2,1.6,4.3,3.3,6.6,4.7
		c8.9,5.5,18.6,6.6,28.7,4.4c6.4-1.4,12.2-4.3,17.1-8.8c3.7-3.4,5.8-7.6,4.5-12.9c-1.3-5-6.8-9.3-11.7-9c-3.5,0.3-6.4,1.8-9,4
		c-5.2,4.6-14.4,5.2-19.7,0.2c-2.9-2.8-6-5.3-10-6.6c-9-3-16.9-1.2-24,4.9c-1.2,1-2.5,1.7-4.1,1.3c-1.8-0.4-2.7-1.8-2.9-3.3
		c-0.3-1.8,0.7-3.3,2.1-4.3c2.4-1.7,4.8-3.5,7.3-4.8c5.9-3,12.3-3.8,18.8-2.8c6.9,1.1,12.8,4.5,17.7,9.4c2.7,2.7,6.8,2.5,9.3,0.3
		c1.1-0.9,2.1-1.8,2.9-2.9c2.1-2.6,3.1-5.8,3-9c-0.1-3.6-1.7-6.7-4.2-9.3c-3.5-3.7-7.7-6.1-12.3-7.9c-6.5-2.6-13.3-4.1-20.3-3.9
		c-4,0.1-7.9,0.7-11.8,1.3c-7.3,1.1-14,3.8-20.1,7.8c-4.3,2.8-7.8,6.5-10.7,10.9c-2.8,4.2-4.3,8.7-4.8,13.6
		c-0.5,5.7,0.6,11.2,4,16.1c4,5.9,9.3,9.4,16.6,8.8c3.5-0.3,6.3-2.1,8-5.1c-2.4-0.1-4.8,0-7.1-0.5c-4.3-0.7-7.8-2.8-10.4-6.4
		c-2.7-3.7-3.5-7.7-3.3-12.2c0.2-4.3,1.7-8.2,4.1-11.5c3.6-5,8.6-8.3,14.3-10.7c9.3-3.9,18.9-5.5,28.9-3.8c7,1.2,13.5,3.7,18.9,8.5
		c1.8,1.5,3.3,3.5,2.8,6.1c-0.3,1.2-1.1,2.4-2.1,3.2c-0.3,0.3-1.8-0.5-2.6-1.1c-3.7-3-7.6-5.6-12-7.2c-6.5-2.3-13.1-3.1-20-1.9
		c-8,1.4-14.9,4.9-20.8,10.4c-4,3.7-5.1,9.9-1.9,15c2.7,4.4,8.3,6.4,13.2,5c2.9-0.8,4.8-2.8,7-4.5c4.2-3.2,11.6-3.9,15.8-1
		c2.6,1.8,5,3.9,7.6,5.7c6,4.3,12.6,5.1,19.7,3.2c3.9-1,7.1-3.2,10.1-5.7c1.8-1.5,4.1-1.3,5.5,0.4c1.2,1.4,1,4.2-0.5,5.6
		c-9,7.8-19.2,10.6-30.8,7.1c-5.3-1.6-9.8-4.8-13.8-8.4c-1.3-1.2-2.8-2.1-4.3-1.8c-4.8,0.8-8.5,3.5-10.2,8.1
		c-2,5.3-0.6,10.1,3.2,14.3c5.2,5.8,12.1,8.4,19.3,10.4c3.8,1.1,6.1,3.1,7.3,6.8c1.1,3.4,2.3,6.8,3.8,10c1.4,3.1,4,5,7.6,5.3
		c5.1,0.5,8.4-3.6,9.8-7.1c1.6-3.9,2.7-7.9,4.1-11.8c1-2.9,2.8-5.2,5.8-6.6c6.7-3,12.4-7.3,16.9-13.2c3.2-4.2,5.3-8.9,5.9-14
		C-912.5,714.6-913.5,709-916.6,704.1L-916.6,704.1z"/>
	<path class="st1" d="M-868.8,698.2c-1.3-2.3-3.1-4-5.5-5.2c-2.3-1.2-5.1-1.8-8.3-1.8h-9.6v29.6h9.6c3.2,0,5.9-0.6,8.3-1.8
		c2.4-1.2,4.2-2.9,5.5-5.2c1.3-2.2,1.9-4.9,1.9-7.8C-867,703-867.6,700.4-868.8,698.2z M-882.6,715.8h-4v-19.7h4
		c3.3,0,5.7,0.9,7.4,2.6c1.7,1.7,2.5,4.2,2.5,7.3c0,3.2-0.8,5.5-2.5,7.3C-876.9,715-879.3,715.8-882.6,715.8z"/>
	<g>
		<path class="st1" d="M-858.2,692.1c0,0.9-0.3,1.8-1,2.4c-0.6,0.7-1.4,1-2.4,1c-0.9,0-1.8-0.4-2.5-1c-0.7-0.7-1-1.5-1-2.5
			c0-0.9,0.4-1.8,1-2.4c0.7-0.7,1.5-1,2.5-1c0.9,0,1.7,0.3,2.4,1C-858.5,690.3-858.2,691.1-858.2,692.1z"/>
		<rect x="-864.4" y="697" class="st1" width="5.6" height="23.7"/>
	</g>
	<path class="st1" d="M-837.9,697v2.2c-0.5-0.4-1-0.8-1.7-1.2l-1.5-0.9v0.2c-1.2-0.4-2.5-0.7-3.9-0.7c-2.1,0-4,0.5-5.8,1.5
		c-1.7,1-3.1,2.4-4.1,4.3c-1,1.8-1.5,3.9-1.5,6.3c0,2.3,0.5,4.5,1.5,6.3c1,1.9,2.4,3.3,4.1,4.4c1.7,1,3.7,1.6,5.8,1.6
		c2.1,0,3.9-0.5,5.4-1.4c0.6-0.4,1.2-0.8,1.7-1.2v1.8c0,2-0.5,3.5-1.6,4.5c-1.1,1.1-2.4,1.6-4.2,1.6c-1.6,0-2.8-0.3-3.9-1
		c-1-0.7-1.7-1.5-2-2.6l-0.2-0.7h-5.5l0.2,1.1c0.4,2.6,1.7,4.7,3.8,6.2c2.1,1.5,4.7,2.2,7.7,2.2c2.2,0,4.3-0.5,6-1.4
		c1.7-1,3.1-2.3,4-4c0.9-1.7,1.4-3.6,1.4-5.8V697H-837.9z M-838.7,712.7c-0.6,1.1-1.3,1.9-2.3,2.4c-1,0.6-2,0.8-3.2,0.8
		c-1.2,0-2.2-0.3-3.2-0.8c-0.9-0.5-1.7-1.4-2.3-2.4c-0.6-1.1-0.9-2.4-0.9-3.9c0-1.5,0.3-2.7,0.9-3.8c0.6-1,1.3-1.8,2.3-2.4
		c1-0.5,2-0.8,3.2-0.8c1.2,0,2.3,0.3,3.2,0.8c0.9,0.5,1.7,1.3,2.3,2.4c0.6,1.1,0.9,2.3,0.9,3.8
		C-837.9,710.3-838.2,711.6-838.7,712.7z"/>
	<g>
		<rect x="-829.3" y="697" class="st1" width="5.6" height="23.7"/>
		<path class="st1" d="M-823.1,692.1c0,0.9-0.3,1.8-1,2.4c-0.6,0.7-1.4,1-2.4,1c-0.9,0-1.8-0.4-2.5-1c-0.7-0.7-1-1.5-1-2.5
			c0-0.9,0.3-1.8,1-2.4c0.7-0.7,1.5-1,2.5-1c0.9,0,1.7,0.3,2.4,1C-823.4,690.3-823.1,691.1-823.1,692.1z"/>
	</g>
	<path class="st1" d="M-812.4,702v11.8c0,0.8,0.1,1.3,0.4,1.5c0.1,0.1,0.5,0.4,1.6,0.4h3.7v5h-4.3c-2.3,0-4-0.6-5.2-1.6
		c-1.2-1.1-1.8-2.9-1.8-5.3V702h-2.8v-5h2.8v-5.5h5.6v5.5h5.7v5H-812.4z"/>
	<path class="st1" d="M-787.6,697v2.2c-0.5-0.4-1-0.8-1.6-1.2c-1.6-0.9-3.4-1.4-5.5-1.4c-2.1,0-4,0.5-5.8,1.5
		c-1.7,1-3.1,2.4-4.1,4.3c-1,1.8-1.5,3.9-1.5,6.3c0,2.4,0.5,4.5,1.5,6.3c1,1.9,2.3,3.3,4,4.4c1.7,1,3.7,1.6,5.8,1.6
		c2,0,3.9-0.5,5.4-1.4c0.6-0.4,1.2-0.8,1.7-1.2v2.2h5.7V697H-787.6z M-788.5,712.7c-0.6,1.1-1.3,1.9-2.3,2.4c-1,0.6-2,0.8-3.2,0.8
		c-1.2,0-2.2-0.3-3.2-0.8c-0.9-0.5-1.7-1.4-2.3-2.4c-0.6-1.1-0.9-2.4-0.9-3.9c0-1.5,0.3-2.7,0.9-3.8c0.6-1,1.3-1.8,2.3-2.4
		c1-0.5,2-0.8,3.2-0.8c1.2,0,2.2,0.3,3.2,0.8c0.9,0.5,1.7,1.3,2.3,2.4c0.6,1.1,0.9,2.3,0.9,3.8
		C-787.6,710.3-787.9,711.6-788.5,712.7z"/>
	<rect x="-778.1" y="689.4" class="st1" width="5.6" height="31.3"/>
	<path class="st1" d="M-728.9,692.1v27.7h-5.5v-18l-7.4,18h-4.2l-7.5-18v18h-5.5v-27.7h6.3l8.8,20.6l8.8-20.6H-728.9L-728.9,692.1z"
		/>
	<path class="st1" d="M-724.3,694.3c-0.7-0.6-1-1.4-1-2.3c0-0.9,0.3-1.7,1-2.3c0.6-0.6,1.5-0.9,2.4-0.9c1,0,1.8,0.3,2.4,0.9
		c0.6,0.6,1,1.4,1,2.3c0,0.9-0.3,1.7-1,2.3c-0.7,0.6-1.5,0.9-2.4,0.9C-722.9,695.2-723.7,694.9-724.3,694.3z M-719.2,697.8v22h-5.5
		v-22H-719.2z"/>
	<path class="st1" d="M-696.4,700c1.6,1.7,2.4,4,2.4,6.9v12.9h-5.5v-12.1c0-1.7-0.4-3.1-1.3-4s-2.1-1.4-3.6-1.4s-2.7,0.5-3.6,1.4
		s-1.3,2.3-1.3,4v12.1h-5.5v-22h5.5v2.7c0.7-1,1.7-1.7,2.8-2.2c1.2-0.5,2.4-0.8,3.8-0.8C-700.1,697.5-698,698.3-696.4,700
		L-696.4,700z"/>
	<path class="st1" d="M-690,702.8c0.9-1.7,2.1-3,3.6-4c1.5-0.9,3.2-1.4,5.1-1.4c1.4,0,2.8,0.3,4.1,0.9c1.3,0.6,2.3,1.5,3.1,2.5
		v-10.4h5.6v29.3h-5.6v-3.3c-0.7,1.1-1.6,2-2.9,2.6c-1.2,0.7-2.7,1-4.3,1c-1.8,0-3.5-0.5-5.1-1.4c-1.5-0.9-2.7-2.3-3.6-4
		c-0.9-1.7-1.3-3.7-1.3-6S-690.9,704.5-690,702.8L-690,702.8z M-674.9,705.3c-0.5-1-1.2-1.7-2.1-2.2s-1.9-0.8-2.9-0.8
		s-2,0.3-2.9,0.8s-1.6,1.2-2.1,2.2c-0.5,1-0.8,2.1-0.8,3.4s0.3,2.5,0.8,3.5c0.5,1,1.3,1.8,2.1,2.3c0.9,0.5,1.8,0.8,2.8,0.8
		s2-0.3,2.9-0.8c0.9-0.5,1.6-1.3,2.1-2.2c0.5-1,0.8-2.1,0.8-3.5C-674.1,707.4-674.4,706.3-674.9,705.3z"/>
	<path class="st1" d="M-660.7,719.1c-1.4-0.6-2.6-1.5-3.4-2.6c-0.8-1.1-1.3-2.3-1.4-3.7h5.6c0.1,0.8,0.5,1.5,1.3,2.1
		c0.7,0.5,1.6,0.8,2.7,0.8c1.1,0,1.9-0.2,2.5-0.6c0.6-0.4,0.9-1,0.9-1.6c0-0.7-0.4-1.3-1.1-1.6c-0.7-0.4-1.9-0.8-3.5-1.2
		c-1.6-0.4-3-0.8-4-1.2s-1.9-1.1-2.7-1.9s-1.1-2-1.1-3.5c0-1.2,0.4-2.3,1-3.3c0.7-1,1.7-1.8,3-2.4c1.3-0.6,2.9-0.9,4.6-0.9
		c2.6,0,4.7,0.6,6.3,2s2.4,3.1,2.6,5.3h-5.3c-0.1-0.9-0.4-1.6-1.1-2.1c-0.6-0.5-1.5-0.8-2.6-0.8c-1,0-1.8,0.2-2.3,0.6
		c-0.5,0.4-0.8,0.9-0.8,1.5c0,0.7,0.4,1.3,1.1,1.7c0.7,0.4,1.9,0.8,3.5,1.2c1.6,0.4,2.9,0.8,3.9,1.2c1,0.4,1.9,1.1,2.7,2
		c0.8,0.9,1.1,2,1.2,3.5c0,1.3-0.4,2.4-1,3.4c-0.7,1-1.7,1.8-3,2.4s-2.8,0.9-4.6,0.9S-659.3,719.8-660.7,719.1L-660.7,719.1z"/>
	<path class="st1" d="M-630.8,718.7c-1.7-0.9-3-2.3-4-4c-1-1.7-1.5-3.7-1.5-6s0.5-4.2,1.5-5.9c1-1.7,2.3-3,4.1-4
		c1.7-0.9,3.6-1.4,5.8-1.4s4,0.5,5.8,1.4c1.7,0.9,3.1,2.3,4.1,4c1,1.7,1.5,3.7,1.5,5.9s-0.5,4.2-1.5,6c-1,1.7-2.4,3-4.1,4
		c-1.7,0.9-3.7,1.4-5.8,1.4C-627.2,720.1-629.1,719.7-630.8,718.7L-630.8,718.7z M-622.3,714.5c0.9-0.5,1.6-1.2,2.1-2.2
		c0.5-1,0.8-2.2,0.8-3.6c0-2.1-0.5-3.7-1.6-4.8c-1.1-1.1-2.4-1.7-4-1.7c-1.6,0-2.9,0.6-4,1.7s-1.6,2.7-1.6,4.8
		c0,2.1,0.5,3.7,1.6,4.8c1,1.1,2.4,1.7,3.9,1.7C-624.1,715.3-623.2,715-622.3,714.5z"/>
	<path class="st1" d="M-592.3,700c1.6,1.7,2.4,4,2.4,6.9v12.9h-5.5v-12.1c0-1.7-0.4-3.1-1.3-4s-2.1-1.4-3.6-1.4s-2.7,0.5-3.6,1.4
		s-1.3,2.3-1.3,4v12.1h-5.5v-22h5.5v2.7c0.7-1,1.7-1.7,2.8-2.2c1.2-0.5,2.4-0.8,3.8-0.8C-596,697.5-593.9,698.3-592.3,700
		L-592.3,700z"/>
	<g>
		<path class="st2" d="M-890.3,752.1c-0.8-0.4-1.5-0.9-2-1.6c-0.5-0.7-0.7-1.4-0.7-2.3h2.2c0.1,0.8,0.4,1.4,0.9,1.9
			c0.5,0.5,1.3,0.8,2.4,0.8s1.8-0.3,2.3-0.7c0.6-0.5,0.9-1.1,0.9-1.9c0-0.6-0.2-1.1-0.5-1.5c-0.3-0.4-0.8-0.7-1.3-0.9
			c-0.5-0.2-1.2-0.4-2-0.6c-1.1-0.3-1.9-0.6-2.5-0.8c-0.6-0.3-1.2-0.7-1.6-1.3c-0.5-0.6-0.7-1.4-0.7-2.4c0-0.9,0.2-1.6,0.7-2.3
			s1.1-1.2,1.9-1.5c0.8-0.4,1.7-0.6,2.8-0.6c1.5,0,2.7,0.4,3.7,1.1c0.9,0.8,1.5,1.7,1.6,3h-2.3c-0.1-0.6-0.4-1.1-1-1.6
			c-0.6-0.5-1.3-0.7-2.2-0.7c-0.9,0-1.6,0.2-2.1,0.7c-0.6,0.5-0.8,1.1-0.8,1.9c0,0.6,0.2,1,0.5,1.4c0.3,0.4,0.7,0.6,1.2,0.8
			c0.5,0.2,1.1,0.4,2,0.6c1,0.3,1.9,0.6,2.5,0.9c0.6,0.3,1.2,0.7,1.6,1.3c0.5,0.6,0.7,1.4,0.7,2.4c0,0.8-0.2,1.5-0.6,2.2
			c-0.4,0.7-1,1.2-1.8,1.7c-0.8,0.4-1.8,0.6-2.8,0.6S-889.5,752.4-890.3,752.1L-890.3,752.1z"/>
		<path class="st2" d="M-876.9,751.9c-1-0.5-1.7-1.3-2.2-2.3c-0.5-1-0.8-2.1-0.8-3.4c0-1.3,0.3-2.4,0.8-3.4c0.5-1,1.3-1.7,2.3-2.3
			c1-0.5,2-0.8,3.2-0.8c1.2,0,2.3,0.3,3.2,0.8c1,0.5,1.7,1.3,2.3,2.3c0.6,1,0.8,2.1,0.8,3.4c0,1.3-0.3,2.4-0.9,3.4
			c-0.6,1-1.3,1.7-2.3,2.3c-1,0.5-2.1,0.8-3.2,0.8S-875.9,752.4-876.9,751.9L-876.9,751.9z M-871.6,750.3c0.6-0.3,1.2-0.9,1.6-1.6
			c0.4-0.7,0.6-1.5,0.6-2.5s-0.2-1.8-0.6-2.5c-0.4-0.7-0.9-1.2-1.5-1.6c-0.6-0.3-1.3-0.5-2.1-0.5s-1.5,0.2-2.1,0.5
			c-0.6,0.3-1.1,0.9-1.5,1.6s-0.6,1.5-0.6,2.5s0.2,1.9,0.6,2.6s0.9,1.2,1.5,1.6c0.6,0.3,1.3,0.5,2,0.5
			C-873,750.9-872.3,750.7-871.6,750.3L-871.6,750.3z"/>
		<path class="st2" d="M-859.5,741.7h-2.6v10.8h-2.1v-10.8h-1.6V740h1.6v-0.9c0-1.4,0.4-2.4,1.1-3.1c0.7-0.6,1.9-1,3.5-1v1.7
			c-0.9,0-1.5,0.2-1.9,0.5c-0.4,0.4-0.6,0.9-0.6,1.8v0.9h2.6V741.7z"/>
		<path class="st2" d="M-854.5,741.7v7.4c0,0.6,0.1,1,0.4,1.3s0.7,0.4,1.3,0.4h1.5v1.8h-1.9c-1.2,0-2-0.3-2.6-0.8
			c-0.6-0.5-0.9-1.4-0.9-2.6v-7.4h-1.6V740h1.6v-3.2h2.1v3.2h3.3v1.7L-854.5,741.7L-854.5,741.7z"/>
		<path class="st2" d="M-832.1,740l-3.9,12.5h-2.1l-3-9.9l-3,9.9h-2.1l-3.9-12.5h2.1l2.9,10.5l3.1-10.5h2.1l3,10.5l2.8-10.5H-832.1
			L-832.1,740z"/>
		<path class="st2" d="M-830,742.8c0.5-1,1.2-1.7,2.1-2.3c0.9-0.5,1.9-0.8,3-0.8c1.1,0,2,0.2,2.9,0.7c0.8,0.5,1.4,1.1,1.8,1.8V740
			h2.1v12.5h-2.1v-2.3c-0.4,0.7-1,1.3-1.8,1.8c-0.8,0.5-1.8,0.7-2.8,0.7s-2.1-0.3-3-0.8c-0.9-0.5-1.6-1.3-2.1-2.3
			c-0.5-1-0.8-2.1-0.8-3.4C-830.8,744.9-830.6,743.8-830,742.8L-830,742.8z M-820.8,743.7c-0.4-0.7-0.9-1.2-1.5-1.6
			c-0.7-0.4-1.4-0.6-2.1-0.6s-1.5,0.2-2.1,0.5c-0.6,0.4-1.2,0.9-1.5,1.6s-0.6,1.5-0.6,2.5s0.2,1.8,0.6,2.5c0.4,0.7,0.9,1.3,1.5,1.6
			s1.3,0.6,2.1,0.6c0.8,0,1.5-0.2,2.1-0.6c0.6-0.4,1.2-0.9,1.5-1.6c0.4-0.7,0.6-1.5,0.6-2.5S-820.4,744.4-820.8,743.7L-820.8,743.7z
			"/>
		<path class="st2" d="M-811,740.3c0.7-0.4,1.5-0.6,2.5-0.6v2.1h-0.5c-2.3,0-3.5,1.3-3.5,3.8v6.8h-2.1V740h2.1v2
			C-812.2,741.3-811.7,740.7-811,740.3L-811,740.3z"/>
		<path class="st2" d="M-794.8,747h-10c0.1,1.2,0.5,2.2,1.3,2.9c0.8,0.7,1.7,1,2.8,1c0.9,0,1.6-0.2,2.3-0.6c0.6-0.4,1-1,1.3-1.7h2.2
			c-0.3,1.2-1,2.2-2,2.9c-1,0.8-2.3,1.1-3.7,1.1c-1.2,0-2.3-0.3-3.2-0.8c-0.9-0.5-1.7-1.3-2.2-2.3c-0.5-1-0.8-2.1-0.8-3.4
			c0-1.3,0.3-2.4,0.8-3.4c0.5-1,1.2-1.7,2.2-2.3c0.9-0.5,2-0.8,3.2-0.8c1.2,0,2.2,0.3,3.1,0.8s1.6,1.2,2.1,2.1
			c0.5,0.9,0.7,1.9,0.7,3.1C-794.7,746.1-794.8,746.5-794.8,747L-794.8,747z M-797.4,743.3c-0.3-0.6-0.8-1-1.4-1.3
			c-0.6-0.3-1.3-0.4-2-0.4c-1,0-1.9,0.3-2.7,1s-1.2,1.6-1.3,2.8h7.9C-796.9,744.5-797,743.8-797.4,743.3z"/>
		<path class="st2" d="M-785.6,740.3c0.7-1.2,1.7-2.2,2.9-2.9s2.5-1.1,4-1.1c1.7,0,3.3,0.4,4.5,1.3c1.3,0.8,2.2,2,2.8,3.6h-2.5
			c-0.4-1-1.1-1.7-1.9-2.2c-0.8-0.5-1.8-0.8-3-0.8c-1.2,0-2.1,0.3-3,0.8c-0.9,0.5-1.6,1.3-2.1,2.2c-0.5,0.9-0.8,2.1-0.8,3.3
			c0,1.3,0.3,2.4,0.8,3.3s1.2,1.7,2.1,2.2c0.9,0.5,1.9,0.8,3,0.8s2.1-0.3,3-0.8c0.8-0.5,1.5-1.2,1.9-2.2h2.5
			c-0.6,1.5-1.5,2.7-2.8,3.5c-1.3,0.8-2.8,1.2-4.5,1.2c-1.5,0-2.8-0.3-4-1c-1.2-0.7-2.2-1.6-2.9-2.9c-0.7-1.2-1-2.6-1-4.2
			S-786.3,741.6-785.6,740.3L-785.6,740.3z"/>
		<path class="st2" d="M-766,751.9c-0.9-0.5-1.7-1.3-2.2-2.3c-0.5-1-0.8-2.1-0.8-3.4c0-1.3,0.3-2.4,0.8-3.4c0.5-1,1.3-1.7,2.3-2.3
			c1-0.5,2-0.8,3.2-0.8c1.2,0,2.3,0.3,3.2,0.8c1,0.5,1.7,1.3,2.3,2.3c0.6,1,0.8,2.1,0.8,3.4c0,1.3-0.3,2.4-0.8,3.4
			c-0.6,1-1.3,1.7-2.3,2.3c-1,0.5-2,0.8-3.2,0.8C-764.1,752.7-765.1,752.4-766,751.9L-766,751.9z M-760.8,750.3
			c0.7-0.3,1.2-0.9,1.6-1.6c0.4-0.7,0.6-1.5,0.6-2.5s-0.2-1.8-0.6-2.5c-0.4-0.7-0.9-1.2-1.5-1.6c-0.6-0.3-1.3-0.5-2.1-0.5
			s-1.5,0.2-2.1,0.5c-0.6,0.3-1.1,0.9-1.5,1.6s-0.6,1.5-0.6,2.5s0.2,1.9,0.6,2.6s0.9,1.2,1.5,1.6c0.6,0.3,1.3,0.5,2,0.5
			S-761.4,750.7-760.8,750.3L-760.8,750.3z"/>
		<path class="st2" d="M-736.1,740.3c0.8,0.4,1.4,1,1.8,1.8c0.4,0.8,0.7,1.8,0.7,2.9v7.4h-2v-7.1c0-1.3-0.3-2.2-0.9-2.9
			c-0.6-0.7-1.5-1-2.5-1c-1.1,0-1.9,0.3-2.6,1c-0.6,0.7-1,1.7-1,3v6.9h-2v-7.1c0-1.3-0.3-2.2-0.9-2.9c-0.6-0.7-1.5-1-2.5-1
			s-1.9,0.3-2.6,1c-0.6,0.7-1,1.7-1,3v6.9h-2.1V740h2.1v1.8c0.4-0.7,1-1.2,1.6-1.5c0.7-0.3,1.5-0.5,2.3-0.5c1,0,2,0.2,2.8,0.7
			c0.8,0.5,1.4,1.2,1.8,2.1c0.4-0.9,0.9-1.6,1.7-2c0.8-0.5,1.7-0.7,2.7-0.7S-736.9,740-736.1,740.3L-736.1,740.3z"/>
		<path class="st2" d="M-726.3,740.5c0.8-0.5,1.8-0.7,2.8-0.7c1.1,0,2.1,0.3,3,0.8c0.9,0.5,1.6,1.3,2.1,2.3c0.5,1,0.8,2.1,0.8,3.4
			s-0.3,2.4-0.8,3.4c-0.5,1-1.2,1.8-2.1,2.3c-0.9,0.5-1.9,0.8-3,0.8s-2-0.2-2.8-0.7c-0.8-0.5-1.4-1.1-1.9-1.8v8.2h-2.1V740h2.1v2.3
			C-727.8,741.6-727.1,741-726.3,740.5L-726.3,740.5z M-720.3,743.7c-0.4-0.7-0.9-1.2-1.5-1.6c-0.6-0.4-1.4-0.6-2.1-0.6
			s-1.5,0.2-2.1,0.6c-0.6,0.4-1.2,0.9-1.5,1.6c-0.4,0.7-0.6,1.5-0.6,2.5s0.2,1.8,0.6,2.5c0.4,0.7,0.9,1.3,1.5,1.6
			c0.7,0.4,1.4,0.6,2.1,0.6c0.8,0,1.5-0.2,2.1-0.6c0.7-0.4,1.2-0.9,1.5-1.6c0.4-0.7,0.6-1.5,0.6-2.5
			C-719.7,745.2-719.9,744.4-720.3,743.7L-720.3,743.7z"/>
		<path class="st2" d="M-714.8,742.8c0.5-1,1.2-1.7,2.1-2.3c0.9-0.5,1.9-0.8,3-0.8s2,0.2,2.9,0.7c0.8,0.5,1.4,1.1,1.8,1.8V740h2.1
			v12.5h-2.1v-2.3c-0.4,0.7-1,1.3-1.8,1.8c-0.8,0.5-1.8,0.7-2.8,0.7s-2.1-0.3-3-0.8c-0.9-0.5-1.6-1.3-2.1-2.3s-0.8-2.1-0.8-3.4
			C-715.6,744.9-715.3,743.8-714.8,742.8L-714.8,742.8z M-705.6,743.7c-0.4-0.7-0.9-1.2-1.5-1.6c-0.7-0.4-1.4-0.6-2.1-0.6
			s-1.5,0.2-2.1,0.5c-0.6,0.4-1.2,0.9-1.5,1.6s-0.6,1.5-0.6,2.5s0.2,1.8,0.6,2.5c0.4,0.7,0.9,1.3,1.5,1.6s1.3,0.6,2.1,0.6
			s1.5-0.2,2.1-0.6c0.7-0.4,1.2-0.9,1.5-1.6c0.4-0.7,0.6-1.5,0.6-2.5S-705.2,744.4-705.6,743.7L-705.6,743.7z"/>
		<path class="st2" d="M-689.6,741.1c0.9,0.9,1.4,2.3,1.4,4v7.4h-2.1v-7.1c0-1.3-0.3-2.2-0.9-2.9s-1.5-1-2.6-1c-1.1,0-2,0.3-2.6,1
			c-0.6,0.7-1,1.7-1,3v6.9h-2.1V740h2.1v1.8c0.4-0.6,1-1.1,1.7-1.5s1.5-0.5,2.3-0.5C-691.8,739.8-690.6,740.2-689.6,741.1
			L-689.6,741.1z"/>
		<path class="st2" d="M-674.1,740l-7.5,18.4h-2.1l2.5-6l-5-12.4h2.3l3.9,10.1l3.9-10.1H-674.1z"/>
	</g>
</g>
</svg>
