<?xml version="1.0" encoding="UTF-8"?>
<svg id="Layer_1" data-name="Layer 1" xmlns="http://www.w3.org/2000/svg" version="1.1" xmlns:xlink="http://www.w3.org/1999/xlink" viewBox="0 0 568 181.06">
  <defs>
    <style>
      .cls-1 {
        fill: url(#linear-gradient);
      }

      .cls-1, .cls-2 {
        stroke-width: 0px;
      }

      .cls-2 {
        fill: #fff;
      }
    </style>
    <linearGradient id="linear-gradient" x1="177.63" y1="148.94" x2="44.48" y2="15.78" gradientUnits="userSpaceOnUse">
      <stop offset="0" stop-color="#29378d"/>
      <stop offset="1" stop-color="#ed1d8f"/>
    </linearGradient>
  </defs>
  <path class="cls-1" d="M191.47,62.64c-6.16-9.75-14.09-16.86-26.65-15.88-5.43.43-9.77,3.05-12.95,7.46,3.64.18,7.09.08,10.45.55,13.41,1.89,22.82,14.18,23.11,26.81.22,9.75-3.84,18.15-10.59,25.15-5.4,5.59-11.89,9.63-18.86,13.01-4.88,2.37-9.56,5.14-11.91,10.43-1.29,2.89-2.52,5.81-3.57,8.79-1.79,5.07-3.27,10.25-5.19,15.27-.49,1.27-2.18,2.9-3.29,2.88-1.14-.02-2.77-1.64-3.3-2.93-1.97-4.79-3.51-9.76-5.32-14.62-2.8-7.53-7.78-12.67-15.8-14.77-8.66-2.27-17-5.36-24.32-10.78-5.05-3.74-6.56-9.85-3.32-14.54,1.2-1.74,2.94-1.85,4.69-.54,3.34,2.52,6.64,5.14,10.19,7.35,13.84,8.63,28.89,10.31,44.55,6.84,9.98-2.21,19.02-6.76,26.61-13.61,5.81-5.23,9.07-11.74,7.02-19.98-1.95-7.82-10.5-14.51-18.23-13.95-5.38.39-10,2.74-14.02,6.26-8.15,7.15-22.43,8.12-30.55.34-4.47-4.28-9.28-8.16-15.49-10.23-14.02-4.66-26.26-1.91-37.24,7.61-1.85,1.6-3.8,2.69-6.38,2.07-2.73-.66-4.15-2.72-4.57-5.12-.48-2.77,1.09-5.19,3.23-6.76,3.65-2.68,7.39-5.36,11.41-7.41,9.19-4.68,19.07-5.96,29.19-4.36,10.76,1.7,19.82,6.95,27.42,14.61,4.14,4.17,10.51,3.83,14.53.54,1.64-1.34,3.2-2.85,4.51-4.51,3.23-4.08,4.79-8.98,4.68-14.02-.11-5.53-2.64-10.42-6.49-14.47-5.38-5.67-12.03-9.41-19.19-12.31-10.13-4.1-20.69-6.34-31.6-6.11-6.15.13-12.31,1.04-18.42,1.97-11.28,1.72-21.72,5.9-31.22,12.14-6.7,4.41-12.12,10.16-16.62,16.93-4.31,6.49-6.69,13.58-7.39,21.09-.83,8.91.98,17.45,6.13,25.07,6.18,9.15,14.39,14.59,25.76,13.63,5.4-.45,9.72-3.23,12.36-7.87-3.73-.21-7.47-.08-11.07-.7-6.64-1.14-12.1-4.42-16.16-9.99-4.17-5.71-5.48-12.03-5.21-18.99.26-6.72,2.61-12.66,6.41-17.89,5.62-7.75,13.31-12.96,22.16-16.67,14.46-6.05,29.32-8.58,44.87-5.93,10.92,1.86,21.01,5.78,29.42,13.16,2.72,2.39,5.2,5.49,4.28,9.52-.42,1.85-1.76,3.73-3.22,4.96-.51.43-2.85-.8-3.98-1.73-5.68-4.67-11.74-8.65-18.71-11.14-10.13-3.62-20.41-4.75-31.13-2.93-12.49,2.13-23.1,7.58-32.27,16.2-6.13,5.76-7.91,15.32-2.97,23.28,4.21,6.77,12.82,9.99,20.48,7.82,4.46-1.26,7.49-4.39,10.94-7.02,6.5-4.96,18.04-6.06,24.57-1.57,4.07,2.8,7.8,6.08,11.83,8.92,9.35,6.6,19.63,7.93,30.58,5.03,6.02-1.6,10.98-5.01,15.71-8.92,2.79-2.31,6.34-1.96,8.47.54,1.91,2.25,1.64,6.57-.8,8.69-13.97,12.19-29.85,16.43-47.86,11.08-8.28-2.46-15.16-7.43-21.52-13.1-2.01-1.79-4.34-3.2-6.72-2.79-7.47,1.26-13.22,5.4-15.91,12.58-3.1,8.27-1,15.7,4.9,22.25,8.07,8.95,18.82,13.06,29.91,16.19,5.95,1.68,9.51,4.86,11.38,10.58,1.72,5.26,3.54,10.53,5.83,15.56,2.23,4.88,6.25,7.7,11.8,8.27,7.94.82,13-5.53,15.26-11.02,2.47-5.99,4.24-12.27,6.39-18.39,1.61-4.57,4.27-8.09,8.93-10.22,10.34-4.7,19.27-11.37,26.25-20.44,4.98-6.46,8.22-13.8,9.17-21.84,1.05-8.95-.5-17.65-5.39-25.4Z"/>
  <g>
    <path class="cls-2" d="M276.35,28.22c4.2,2.14,7.42,5.19,9.66,9.17,2.24,3.97,3.36,8.65,3.36,14.03s-1.12,10.05-3.36,14c-2.24,3.95-5.46,6.97-9.66,9.05-4.2,2.09-9.17,3.13-14.9,3.13h-16.37V25.01h16.37c5.73,0,10.7,1.07,14.9,3.21ZM276.99,66.55c3.57-3.6,5.36-8.64,5.36-15.13s-1.8-11.64-5.39-15.32c-3.6-3.67-8.76-5.51-15.5-5.51h-9.51v41.35h9.51c6.79,0,11.97-1.8,15.54-5.39Z"/>
    <path class="cls-2" d="M296.3,28.18c-.91-.91-1.36-2.01-1.36-3.32s.45-2.41,1.36-3.32,2.01-1.36,3.32-1.36,2.33.45,3.21,1.36c.88.91,1.32,2.01,1.32,3.32s-.44,2.41-1.32,3.32c-.88.91-1.95,1.36-3.21,1.36s-2.41-.45-3.32-1.36ZM302.94,36.25v41.35h-6.87v-41.35h6.87Z"/>
    <path class="cls-2" d="M338.74,37.91c2.69,1.56,4.69,3.52,6,5.89v-7.54h6.94v42.25c0,3.77-.8,7.13-2.41,10.07s-3.91,5.24-6.9,6.9c-2.99,1.66-6.48,2.49-10.45,2.49-5.43,0-9.96-1.28-13.58-3.85-3.62-2.57-5.76-6.06-6.41-10.49h6.79c.75,2.51,2.31,4.54,4.68,6.07,2.36,1.53,5.21,2.3,8.53,2.3,3.77,0,6.85-1.18,9.24-3.55,2.39-2.37,3.58-5.69,3.58-9.96v-8.68c-1.36,2.41-3.37,4.43-6.04,6.04-2.67,1.61-5.78,2.41-9.36,2.41s-7-.91-10-2.72c-2.99-1.81-5.34-4.35-7.05-7.62-1.71-3.27-2.57-6.99-2.57-11.17s.86-7.93,2.57-11.13c1.71-3.19,4.06-5.67,7.05-7.43s6.33-2.64,10-2.64,6.7.78,9.39,2.34ZM342.86,48.7c-1.26-2.31-2.96-4.09-5.09-5.32-2.14-1.23-4.49-1.85-7.05-1.85s-4.9.6-7.02,1.81-3.8,2.97-5.06,5.28c-1.26,2.31-1.89,5.03-1.89,8.15s.63,5.92,1.89,8.26c1.26,2.34,2.94,4.12,5.06,5.36,2.11,1.23,4.45,1.85,7.02,1.85s4.92-.62,7.05-1.85c2.14-1.23,3.84-3.02,5.09-5.36,1.25-2.34,1.89-5.07,1.89-8.19s-.63-5.83-1.89-8.15Z"/>
    <path class="cls-2" d="M361.19,28.18c-.91-.91-1.36-2.01-1.36-3.32s.45-2.41,1.36-3.32c.91-.91,2.01-1.36,3.32-1.36s2.33.45,3.21,1.36c.88.91,1.32,2.01,1.32,3.32s-.44,2.41-1.32,3.32c-.88.91-1.95,1.36-3.21,1.36s-2.41-.45-3.32-1.36ZM367.83,36.25v41.35h-6.87v-41.35h6.87Z"/>
    <path class="cls-2" d="M385.56,41.91v24.37c0,2.01.43,3.43,1.28,4.26s2.34,1.24,4.45,1.24h5.06v5.81h-6.19c-3.82,0-6.69-.88-8.6-2.64-1.91-1.76-2.87-4.65-2.87-8.68v-24.37h-5.36v-5.66h5.36v-10.41h6.87v10.41h10.79v5.66h-10.79Z"/>
    <path class="cls-2" d="M402.31,45.65c1.71-3.19,4.06-5.67,7.05-7.43,2.99-1.76,6.33-2.64,10-2.64s6.76.78,9.43,2.34c2.67,1.56,4.65,3.52,5.96,5.89v-7.54h6.94v41.35h-6.94v-7.7c-1.36,2.41-3.38,4.41-6.08,6-2.69,1.58-5.82,2.38-9.39,2.38s-6.99-.91-9.96-2.72c-2.97-1.81-5.31-4.35-7.02-7.62-1.71-3.27-2.57-6.99-2.57-11.17s.86-7.93,2.57-11.13ZM432.87,48.7c-1.26-2.31-2.96-4.09-5.09-5.32-2.14-1.23-4.49-1.85-7.05-1.85s-4.9.6-7.02,1.81-3.8,2.97-5.06,5.28c-1.26,2.31-1.89,5.03-1.89,8.15s.63,5.92,1.89,8.26c1.26,2.34,2.94,4.12,5.06,5.36,2.11,1.23,4.45,1.85,7.02,1.85s4.92-.62,7.05-1.85c2.14-1.23,3.84-3.02,5.09-5.36,1.25-2.34,1.89-5.07,1.89-8.19s-.63-5.83-1.89-8.15Z"/>
    <path class="cls-2" d="M457.84,21.77v55.83h-6.87V21.77h6.87Z"/>
    <path class="cls-2" d="M301.89,108.19v52.66h-10.56v-34.25l-14.11,34.25h-8l-14.18-34.25v34.25h-10.56v-52.66h12l16.75,39.16,16.75-39.16h11.92Z"/>
    <path class="cls-2" d="M310.68,112.3c-1.23-1.18-1.85-2.65-1.85-4.41s.62-3.23,1.85-4.41c1.23-1.18,2.78-1.77,4.64-1.77s3.41.59,4.64,1.77c1.23,1.18,1.85,2.65,1.85,4.41s-.62,3.23-1.85,4.41c-1.23,1.18-2.78,1.77-4.64,1.77s-3.41-.59-4.64-1.77ZM320.52,119.06v41.8h-10.56v-41.8h10.56Z"/>
    <path class="cls-2" d="M363.83,123.17c3.07,3.14,4.6,7.53,4.6,13.17v24.52h-10.56v-23.09c0-3.32-.83-5.87-2.49-7.66-1.66-1.78-3.92-2.68-6.79-2.68s-5.22.89-6.9,2.68c-1.68,1.79-2.53,4.34-2.53,7.66v23.09h-10.56v-41.8h10.56v5.21c1.41-1.81,3.21-3.23,5.39-4.26,2.19-1.03,4.59-1.55,7.2-1.55,4.98,0,9,1.57,12.07,4.72Z"/>
    <path class="cls-2" d="M375.94,128.56c1.68-3.27,3.99-5.78,6.9-7.54,2.92-1.76,6.16-2.64,9.73-2.64,2.72,0,5.31.59,7.77,1.77,2.46,1.18,4.42,2.75,5.89,4.72v-19.84h10.71v55.83h-10.71v-6.19c-1.31,2.06-3.15,3.72-5.51,4.98s-5.11,1.89-8.22,1.89c-3.52,0-6.74-.91-9.66-2.72-2.92-1.81-5.22-4.36-6.9-7.66-1.69-3.29-2.53-7.08-2.53-11.35s.84-7.97,2.53-11.24ZM404.8,133.35c-1.01-1.84-2.37-3.24-4.07-4.23-1.71-.98-3.55-1.47-5.51-1.47s-3.77.48-5.43,1.43-3.01,2.35-4.04,4.19c-1.03,1.84-1.55,4.01-1.55,6.53s.52,4.72,1.55,6.6,2.39,3.33,4.07,4.34c1.68,1.01,3.48,1.51,5.39,1.51s3.8-.49,5.51-1.47c1.71-.98,3.07-2.39,4.07-4.23,1.01-1.83,1.51-4.04,1.51-6.6s-.5-4.77-1.51-6.6Z"/>
    <path class="cls-2" d="M431.73,159.68c-2.72-1.23-4.87-2.9-6.45-5.02-1.58-2.11-2.45-4.45-2.6-7.02h10.64c.2,1.61.99,2.94,2.38,4,1.38,1.06,3.11,1.58,5.17,1.58s3.58-.4,4.72-1.21c1.13-.8,1.7-1.84,1.7-3.09,0-1.36-.69-2.38-2.07-3.06-1.38-.68-3.58-1.42-6.6-2.23-3.12-.75-5.67-1.53-7.66-2.34-1.99-.8-3.7-2.04-5.13-3.7-1.43-1.66-2.15-3.9-2.15-6.71,0-2.31.67-4.42,2-6.34,1.33-1.91,3.24-3.42,5.73-4.53,2.49-1.11,5.42-1.66,8.79-1.66,4.98,0,8.95,1.24,11.92,3.73,2.97,2.49,4.6,5.85,4.9,10.07h-10.11c-.15-1.66-.84-2.98-2.08-3.96-1.23-.98-2.88-1.47-4.94-1.47-1.91,0-3.38.35-4.41,1.06s-1.55,1.69-1.55,2.94c0,1.41.7,2.48,2.11,3.21,1.41.73,3.6,1.47,6.56,2.23,3.02.75,5.51,1.53,7.47,2.34,1.96.81,3.66,2.05,5.09,3.73,1.43,1.69,2.17,3.91,2.22,6.68,0,2.41-.67,4.58-2,6.49-1.33,1.91-3.25,3.41-5.73,4.49-2.49,1.08-5.39,1.62-8.71,1.62s-6.49-.62-9.2-1.85Z"/>
    <path class="cls-2" d="M481.06,158.85c-3.22-1.78-5.75-4.31-7.58-7.58-1.84-3.27-2.75-7.04-2.75-11.32s.94-8.05,2.83-11.32c1.89-3.27,4.46-5.8,7.73-7.58,3.27-1.78,6.92-2.68,10.94-2.68s7.67.89,10.94,2.68c3.27,1.79,5.85,4.31,7.73,7.58,1.89,3.27,2.83,7.04,2.83,11.32s-.97,8.05-2.9,11.32c-1.94,3.27-4.55,5.8-7.85,7.58-3.3,1.79-6.98,2.68-11.05,2.68s-7.65-.89-10.86-2.68ZM497.32,150.93c1.68-.93,3.03-2.33,4.04-4.19,1.01-1.86,1.51-4.12,1.51-6.79,0-3.97-1.05-7.03-3.13-9.17-2.09-2.14-4.64-3.21-7.66-3.21s-5.54,1.07-7.58,3.21c-2.04,2.14-3.06,5.19-3.06,9.17s.99,7.03,2.98,9.17c1.99,2.14,4.49,3.21,7.51,3.21,1.91,0,3.71-.46,5.39-1.4Z"/>
    <path class="cls-2" d="M554.4,123.17c3.07,3.14,4.6,7.53,4.6,13.17v24.52h-10.56v-23.09c0-3.32-.83-5.87-2.49-7.66-1.66-1.78-3.92-2.68-6.79-2.68s-5.22.89-6.9,2.68c-1.68,1.79-2.53,4.34-2.53,7.66v23.09h-10.56v-41.8h10.56v5.21c1.41-1.81,3.21-3.23,5.39-4.26,2.19-1.03,4.59-1.55,7.2-1.55,4.98,0,9,1.57,12.07,4.72Z"/>
  </g>
</svg>