<?xml version="1.0" encoding="UTF-8"?>
<svg id="Layer_1" data-name="Layer 1" xmlns="http://www.w3.org/2000/svg" version="1.1" xmlns:xlink="http://www.w3.org/1999/xlink" viewBox="0 0 496 429.88">
  <defs>
    <style>
      .cls-1 {
        fill: url(#linear-gradient);
        stroke-width: 0px;
      }
    </style>
    <linearGradient id="linear-gradient" x1="431.52" y1="359.31" x2="101.43" y2="29.21" gradientUnits="userSpaceOnUse">
      <stop offset="0" stop-color="#29378d"/>
      <stop offset="1" stop-color="#ed1d8f"/>
    </linearGradient>
  </defs>
  <path class="cls-1" d="M465.85,145.36c-15.27-24.18-34.94-41.8-66.06-39.37-13.47,1.05-24.21,7.55-32.11,18.49,9.03.43,17.57.19,25.91,1.36,33.25,4.68,56.59,35.15,57.3,66.45.55,24.18-9.51,45-26.26,62.34-13.38,13.86-29.48,23.87-46.75,32.25-12.11,5.88-23.7,12.75-29.54,25.85-3.19,7.16-6.24,14.4-8.84,21.78-4.43,12.57-8.1,25.42-12.87,37.86-1.21,3.15-5.4,7.18-8.16,7.14-2.83-.04-6.86-4.07-8.17-7.25-4.87-11.88-8.7-24.19-13.18-36.24-6.94-18.68-19.28-31.41-39.18-36.62-21.47-5.63-42.13-13.29-60.28-26.72-12.51-9.26-16.27-24.43-8.24-36.06,2.98-4.32,7.3-4.59,11.62-1.34,8.29,6.25,16.47,12.74,25.26,18.22,34.32,21.4,71.61,25.55,110.44,16.95,24.74-5.48,47.14-16.77,65.98-33.73,14.39-12.96,22.49-29.11,17.39-49.53-4.85-19.39-26.03-35.98-45.19-34.58-13.34.97-24.8,6.79-34.76,15.53-20.2,17.72-55.6,20.14-75.74.85-11.07-10.61-23-20.24-38.41-25.36-34.76-11.55-65.1-4.74-92.31,18.88-4.58,3.97-9.43,6.67-15.82,5.13-6.78-1.64-10.29-6.75-11.33-12.7-1.2-6.86,2.7-12.87,8.01-16.77,9.05-6.65,18.31-13.29,28.28-18.37,22.77-11.6,47.28-14.77,72.38-10.8,26.66,4.21,49.13,17.22,67.99,36.23,10.25,10.33,26.05,9.48,36.02,1.34,4.07-3.33,7.94-7.08,11.19-11.19,8-10.12,11.87-22.26,11.61-34.75-.28-13.71-6.55-25.82-16.09-35.87-13.35-14.05-29.81-23.33-47.58-30.52-25.12-10.17-51.3-15.71-78.35-15.15-15.25.31-30.53,2.57-45.65,4.88-27.96,4.27-53.84,14.62-77.39,30.1-16.62,10.92-30.05,25.19-41.2,41.98-10.69,16.09-16.58,33.66-18.32,52.28-2.07,22.09,2.42,43.26,15.2,62.15,15.33,22.68,35.67,36.16,63.86,33.8,13.38-1.12,24.09-8.01,30.65-19.51-9.25-.53-18.51-.2-27.45-1.74-16.47-2.83-30-10.95-40.07-24.76-10.34-14.17-13.58-29.82-12.91-47.08.65-16.66,6.48-31.39,15.88-44.36,13.93-19.21,33-32.13,54.94-41.32,35.84-15,72.68-21.27,111.25-14.69,27.08,4.62,52.08,14.32,72.93,32.63,6.75,5.93,12.89,13.62,10.62,23.61-1.04,4.58-4.37,9.25-7.99,12.29-1.26,1.06-7.07-1.98-9.87-4.29-14.08-11.58-29.1-21.44-46.38-27.61-25.12-8.97-50.61-11.78-77.19-7.26-30.96,5.27-57.26,18.79-80.01,40.17-15.2,14.29-19.61,37.99-7.36,57.7,10.43,16.78,31.78,24.76,50.78,19.38,11.05-3.13,18.57-10.89,27.13-17.41,16.12-12.29,44.72-15.03,60.91-3.9,10.08,6.93,19.33,15.06,29.33,22.12,23.18,16.36,48.67,19.66,75.82,12.47,14.94-3.96,27.23-12.43,38.94-22.12,6.92-5.72,15.73-4.87,21,1.34,4.72,5.57,4.06,16.28-1.99,21.56-34.63,30.23-74.01,40.74-118.66,27.47-20.54-6.1-37.59-18.42-53.34-32.48-4.98-4.44-10.76-7.92-16.65-6.93-18.52,3.14-32.77,13.39-39.44,31.2-7.69,20.51-2.48,38.93,12.15,55.15,20.01,22.2,46.65,32.37,74.14,40.13,14.75,4.16,23.57,12.05,28.21,26.23,4.28,13.05,8.77,26.11,14.46,38.58,5.52,12.1,15.5,19.09,29.26,20.51,19.69,2.04,32.24-13.72,37.84-27.32,6.12-14.85,10.51-30.41,15.84-45.6,3.98-11.34,10.59-20.07,22.15-25.33,25.64-11.66,47.77-28.19,65.08-50.67,12.34-16.01,20.39-34.21,22.74-54.14,2.61-22.18-1.23-43.76-13.37-62.98Z"/>
</svg>